<?xml version="1.0" encoding="UTF-8" standalone="no"?>
<svg
   xmlns:dc="http://purl.org/dc/elements/1.1/"
   xmlns:cc="http://creativecommons.org/ns#"
   xmlns:rdf="http://www.w3.org/1999/02/22-rdf-syntax-ns#"
   xmlns:svg="http://www.w3.org/2000/svg"
   xmlns="http://www.w3.org/2000/svg"
   xmlns:sodipodi="http://sodipodi.sourceforge.net/DTD/sodipodi-0.dtd"
   xmlns:inkscape="http://www.inkscape.org/namespaces/inkscape"
   height="530"
   width="500"
   version="1.1"
   id="svg114"
   sodipodi:docname="magnetfeld_einer_spule_zweite_rechte_hand_regel_1.svg"
   inkscape:version="0.92.4 (5da689c313, 2019-01-14)">
  <metadata
     id="metadata118">
    <rdf:RDF>
      <cc:Work
         rdf:about="">
        <dc:format>image/svg+xml</dc:format>
        <dc:type
           rdf:resource="http://purl.org/dc/dcmitype/StillImage" />
        <dc:title>Rechte-Hand-Regel (Spule)</dc:title>
      </cc:Work>
    </rdf:RDF>
  </metadata>
  <sodipodi:namedview
     pagecolor="#ffffff"
     bordercolor="#666666"
     borderopacity="1"
     objecttolerance="10"
     gridtolerance="10"
     guidetolerance="10"
     inkscape:pageopacity="0"
     inkscape:pageshadow="2"
     inkscape:window-width="1920"
     inkscape:window-height="1001"
     id="namedview116"
     showgrid="false"
     inkscape:zoom="0.89702965"
     inkscape:cx="102.62522"
     inkscape:cy="265.90841"
     inkscape:window-x="-9"
     inkscape:window-y="-9"
     inkscape:window-maximized="1"
     inkscape:current-layer="svg114"
     fit-margin-top="0"
     fit-margin-left="0"
     fit-margin-right="0"
     fit-margin-bottom="0" />
  <title
     id="title2">Rechte-Hand-Regel (Spule)</title>
  <defs
     id="defs10">
    <marker
       inkscape:stockid="Arrow1Send"
       orient="auto"
       refY="0"
       refX="0"
       id="Arrow1Send"
       style="overflow:visible"
       inkscape:isstock="true">
      <path
         id="path932"
         d="M 0,0 5,-5 -12.5,0 5,5 Z"
         style="fill:#ff0000;fill-opacity:1;fill-rule:evenodd;stroke:#ff0000;stroke-width:1.00000003pt;stroke-opacity:1"
         transform="matrix(-0.2,0,0,-0.2,-1.2,0)"
         inkscape:connector-curvature="0" />
    </marker>
    <symbol
       overflow="visible"
       id="b"
       style="overflow:visible">
      <path
         d="m 3.484,-3.875 -1.28,-0.297 c -0.626,-0.156 -1,-0.687 -1,-1.266 0,-0.703 0.53,-1.312 1.312,-1.312 1.656,0 1.875,1.64 1.937,2.078 0.016,0.063 0.016,0.125 0.125,0.125 0.125,0 0.125,-0.047 0.125,-0.234 v -2 c 0,-0.172 0,-0.25 -0.11,-0.25 -0.062,0 -0.077,0.015 -0.14,0.14 l -0.36,0.563 C 3.797,-6.625 3.391,-7.031 2.5,-7.031 c -1.11,0 -1.938,0.875 -1.938,1.937 0,0.828 0.532,1.563 1.297,1.828 0.11,0.032 0.625,0.157 1.329,0.329 0.265,0.062 0.562,0.14 0.843,0.5 0.203,0.265 0.313,0.593 0.313,0.921 0,0.704 -0.5,1.422 -1.344,1.422 -0.281,0 -1.047,-0.047 -1.578,-0.531 -0.578,-0.547 -0.61,-1.172 -0.61,-1.531 -0.015,-0.11 -0.093,-0.11 -0.125,-0.11 -0.125,0 -0.125,0.079 -0.125,0.25 v 2 c 0,0.172 0,0.235 0.11,0.235 0.062,0 0.078,-0.016 0.14,-0.125 0,-0.016 0.032,-0.047 0.36,-0.578 0.312,0.343 0.953,0.703 1.844,0.703 1.156,0 1.953,-0.969 1.953,-2.078 0,-0.985 -0.657,-1.813 -1.485,-2.016 z m 0,0"
         id="path4"
         inkscape:connector-curvature="0" />
    </symbol>
    <symbol
       id="a"
       overflow="visible"
       style="overflow:visible">
      <path
         d="M 2.313,-6.672 C 2.219,-6.797 2.219,-6.812 2.031,-6.812 H 0.328 V -6.5 h 0.297 c 0.14,0 0.344,0.016 0.484,0.016 0.235,0.03 0.25,0.046 0.25,0.234 v 5.203 c 0,0.266 0,0.734 -1.03,0.734 V 0 c 0.343,-0.016 0.843,-0.031 1.171,-0.031 0.328,0 0.813,0.015 1.156,0.031 v -0.313 c -1.015,0 -1.015,-0.468 -1.015,-0.734 v -5.187 c 0.046,0.046 0.046,0.062 0.093,0.125 l 4.063,5.984 C 5.891,-0.015 5.907,0 5.969,0 c 0.14,0 0.14,-0.063 0.14,-0.266 v -5.5 c 0,-0.265 0,-0.734 1.032,-0.734 v -0.313 c -0.36,0.016 -0.844,0.032 -1.172,0.032 -0.328,0 -0.813,-0.016 -1.157,-0.032 V -6.5 c 1.016,0 1.016,0.469 1.016,0.734 V -1.5 Z m 0,0"
         id="path7"
         inkscape:connector-curvature="0" />
    </symbol>
    <marker
       inkscape:stockid="Arrow1Mend"
       orient="auto"
       refY="0"
       refX="0"
       id="Arrow1Mend"
       style="overflow:visible"
       inkscape:isstock="true">
      <path
         id="path1049"
         d="M 0,0 5,-5 -12.5,0 5,5 Z"
         style="fill:#ff0000;fill-opacity:1;fill-rule:evenodd;stroke:#ff0000;stroke-width:1.00000003pt;stroke-opacity:1"
         transform="matrix(-0.4,0,0,-0.4,-4,0)"
         inkscape:connector-curvature="0" />
    </marker>
    <marker
       inkscape:stockid="Arrow1Send"
       orient="auto"
       refY="0"
       refX="0"
       id="Arrow1Send-8"
       style="overflow:visible"
       inkscape:isstock="true">
      <path
         inkscape:connector-curvature="0"
         id="path932-3"
         d="M 0,0 5,-5 -12.5,0 5,5 Z"
         style="fill:#ff0000;fill-opacity:1;fill-rule:evenodd;stroke:#ff0000;stroke-width:1.00000003pt;stroke-opacity:1"
         transform="matrix(-0.2,0,0,-0.2,-1.2,0)" />
    </marker>
  </defs>
  <g
     id="g1022"
     transform="matrix(1.0491544,0,0,1.0491544,-9.7926352,-49.343394)">
    <text
       id="text18"
       word-spacing="0"
       letter-spacing="0"
       font-weight="400"
       font-size="109.435"
       transform="matrix(0,-0.99959496,-1.0004052,0,0,0)"
       style="font-weight:400;font-size:69.20294952px;line-height:125%;font-family:Sans;letter-spacing:0;word-spacing:0;fill:#ff0000;stroke:#ff0000;stroke-width:1.50641358"
       x="-515.4483"
       y="-14.975907">
      <tspan
         style="fill:#ff0000;stroke:#ff0000;stroke-width:1"
         id="tspan16"
         x="-515.4483"
         y="-14.975907">+</tspan>
    </text>
    <path
       id="path20"
       d="m 134.33967,504.17796 c 2.06045,-1.4981 5.7246,-4.134 8.14185,-5.85839 6.52612,-4.65233 17.92344,-19.92915 20.96319,-28.09791 2.60514,-7.00188 4.19998,-13.79263 4.86234,-20.70286 0.93818,-9.78948 5.47407,-23.72307 12.29374,-37.76348 4.23667,-8.72312 4.85728,-11.42666 3.98552,-17.38049 -1.18617,-8.09986 -0.97107,-17.7193 0.4441,-19.87732 1.81437,-2.76675 6.48501,-5.29392 10.7084,-5.29392 5.19383,0 8.57708,0.823 11.00635,5.07268 1.23931,2.16814 2.05729,4.52338 2.24138,3.90011 0.16638,-0.56257 1.10329,-5.25788 2.08322,-10.43486 1.09381,-5.78064 2.29769,-10.11817 3.12136,-11.24143 2.04527,-2.79014 5.52595,-5.3388 10.14536,-5.34007 5.05402,-0.002 10.01694,1.76106 12.12357,5.1675 0.84392,1.36472 1.79791,2.81162 1.00144,3.58849 0.25875,-0.0139 1.57776,-1.64728 2.93094,-3.63021 1.35382,-1.9823 3.6768,-5.10555 5.16282,-6.29771 2.25657,-1.80909 4.00324,-2.77496 7.0316,-2.74525 10.94816,-0.30911 19.91494,8.70226 19.33799,19.7174 l -1.87826,6.48544 2.7671,-3.23197 c 6.24334,-7.29266 15.70041,-8.07711 22.62382,-1.98799 5.14069,4.52148 7.9274,12.87101 12.05968,31.99739 3.46803,16.05558 2.86261,22.19211 -2.22241,40.85766 -2.90372,10.6599 -3.16816,17.41778 -0.9388,24.03029 2.08702,6.18961 4.33599,9.65358 6.08961,10.59099 2.34704,1.25474 11.14997,1.6713 17.68433,0.7421 3.50852,-0.49937 11.78068,-2.28128 19.95099,-5.05688 13.2294,-4.4943 14.18529,-5.63083 20.96953,-5.66054 8.95476,-0.0385 16.32607,0.90265 24.18134,4.26547 9.33117,3.99368 13.30404,7.96522 12.46582,13.5044 -0.24103,1.59165 -0.99132,5.90137 -1.5417,6.03159 -3.44337,0.81731 -11.63012,2.52211 -22.97051,3.75157 -10.33894,1.23767 -19.31015,4.60302 -29.09745,6.26231 -9.64496,1.701 -10.86781,2.82743 -19.56447,8.75219 -12.89537,8.78443 -22.1696,12.64346 -34.40578,14.31539 -14.3814,1.96523 -26.99778,3.89253 -31.6893,4.84132 -10.48824,2.12073 -30.04132,7.59479 -32.71162,9.15864 -1.58092,0.9254 -5.65817,4.06636 -9.06042,6.97848 -3.40224,2.91277 -6.74438,5.47281 -7.42698,5.68899 -0.78191,0.24779 -16.92453,-7.40832 -43.62941,-20.69147 -23.31402,-11.59669 -42.52295,-21.21992 -42.68744,-21.38427 -0.16448,-0.16435 1.38671,-1.52402 3.44779,-3.02275 z"
       inkscape:connector-curvature="0"
       style="fill:#ffccaa;stroke:#ffccaa;stroke-width:3.00006413;stroke-linecap:round" />
    <path
       style="fill:none;stroke:#000000;stroke-width:1.99993634"
       inkscape:connector-curvature="0"
       d="m 130.03784,506.24812 17.69128,-12.67569 13.83924,-18.43738 c 8.1545,-19.4538 5.90426,-22.00121 7.73444,-32.3324 2.00098,-11.29328 6.81776,-19.99364 7.83439,-24.13142 0.68702,-2.79772 4.9471,-9.30213 7.59778,-16.22815 2.1408,-6.21364 -0.46181,-10.56319 -1.25512,-19.49426 0.52129,-7.98734 0.81799,-12.00061 10.28011,-14.9102 0,0 5.67209,-0.61632 9.22363,1.15233 5.58289,3.19405 6.27561,8.6776 6.27561,8.6776 0,0 2.4027,-15.06696 4.44101,-21.68769 4.12975,-5.55244 8.45183,-6.24523 16.10782,-5.08658 3.75714,0.90202 6.39265,3.53603 8.41704,7.49366 0,0 0.74207,-0.56447 4.51376,-6.67508 8.05138,-8.18265 18.37893,-3.97154 19.49361,-3.13526 10.86719,8.24208 10.89122,14.35774 9.07433,22.55557 6.02699,-7.52401 12.05778,-9.41211 19.2412,-6.70037 4.24489,1.89002 8.39933,4.66308 12.29438,15.43613 1.42719,3.49113 3.69261,11.87101 6.34266,25.9266 2.02187,9.51642 1.32092,15.47911 -0.57631,24.19905 l -4.91548,18.2332 c -1.50817,12.47343 2.89868,23.60804 6.45022,26.72055 2.20279,1.33122 11.09998,2.10618 24.50651,0.0885 5.22483,-1.04678 3.89948,-1.13591 19.13935,-6.29961 6.38695,-2.47598 8.96235,-2.97534 14.7888,-3.59671 6.51474,-0.10872 13.12628,1.12895 18.45169,2.20606 7.72558,2.77876 9.31662,3.07016 13.26292,5.85966 4.49794,3.18078 7.95269,5.40265 4.57765,15.62386 -8.47081,3.0436 -18.48395,4.37546 -20.79365,4.13779 l -12.00401,1.41972 -9.26412,2.98292 c -5.14954,2.19215 -9.78855,1.08849 -18.76103,3.75979 0,0 -10.23899,5.59291 -12.54553,7.89694 -7.85653,5.91528 -13.74687,7.85333 -24.21867,11.79137 -6.38442,0.94375 -15.97371,2.5139 -18.28025,2.5139 -2.30654,0 -22.48844,3.45764 -24.79498,4.03287 -2.30654,0.57648 -14.99251,4.03348 -14.99251,4.03348 -19.78336,3.35904 -18.76104,9.67066 -31.85442,17.96772 z"
       id="path22" />
    <path
       style="fill:none;stroke:#000000;stroke-width:1.99993634;stroke-linecap:round"
       inkscape:connector-curvature="0"
       d="m 300.31819,384.29205 c -2.73926,3.6005 -5.47851,7.63398 -5.47851,7.63398 -1.80171,3.6005 -3.60405,8.42603 -4.18037,12.09921 l -1.15327,8.21048 c -1.15327,7.20163 -3.89252,13.3236 -3.89252,13.3236 -2.23442,5.25726 -4.03613,6.84195 -4.03613,6.84195 -7.61361,6.58154 -13.04909,6.3565 -20.9031,1.87232 -0.72118,1.29645 -1.121,2.42161 -3.02709,3.74524 -7.34348,5.09861 -13.21358,3.59039 -18.8844,-0.86408 0,0 -2.43434,3.07331 -4.181,3.74461 -3.28394,1.26296 -5.25899,1.28319 -6.8241,1.25158 -3.91529,-0.079 -6.79436,-1.20101 -9.17744,-3.41213 -1.60876,-1.49304 -2.59438,-6.04929 -2.59438,-6.04929 -3.13528,6.20415 -8.26142,6.79897 -15.26327,-0.22439 -4.83704,-9.32363 -6.50083,-15.48037 -10.62553,-24.7825 l -4.4195,-13.52904"
       id="path24" />
    <path
       style="fill:none;stroke:#000000;stroke-width:3.00006413;stroke-linecap:round"
       inkscape:connector-curvature="0"
       d="m 271.62308,368.45896 c -3.81661,7.87609 -6.99047,15.88113 -9.15214,24.08844 l -1.50817,14.21488 -0.86479,12.53095 -0.57696,9.50692 c -0.28847,3.67256 1.00903,5.90581 1.00903,5.90581 m -22.31953,-78.35821 -5.93526,34.57007 c 0,0 -0.33403,5.38368 -0.14424,8.06572 0.36376,5.14221 1.89976,12.29011 2.45078,15.26861 1.27979,6.91844 1.63533,13.74079 3.8204,22.75848 m -29.33595,-61.64965 c 0,0 -1.13682,11.61817 -0.86479,17.42915 0.33023,7.07457 1.82638,15.63839 3.02709,21.03029 1.20009,5.39063 2.60198,7.64663 3.45981,11.3786 0.85784,3.73198 1.15327,7.56256 1.15327,7.56256"
       id="path26" />
    <path
       id="path30"
       d="m 261.39548,431.23883 c 0.14361,-4.3211 0.36059,-8.42602 1.72959,-14.69213 1.80171,-3.67255 1.94594,-4.46522 6.05419,-5.47343 1.73022,0 4.10889,0.28824 6.05482,1.80025 2.2901,2.88558 3.6806,8.00882 2.8835,16.92473 -5.15144,3.79582 -11.07279,4.53413 -16.7221,1.44121 z M 250.4391,416.83495 c 3.91467,3.4589 6.32812,9.98922 6.91962,14.40388 -3.08593,7.24397 -9.8126,7.713 -17.08269,4.24904 -1.72959,-7.13019 -1.87383,-14.40389 -1.29688,-16.70856 3.01192,-3.83311 7.16951,-4.08342 11.45995,-1.94436 z m -26.66882,2.30467 c 2.48621,-0.46017 6.19844,0.21618 7.64018,1.72818 2.35336,3.72883 3.58444,7.42603 4.61308,12.96394 -3.71855,5.80593 -9.0718,5.21238 -16.14578,2.88052 -1.12417,-5.86091 -1.21337,-8.97406 0,-14.69212 0.79331,-1.22439 2.36854,-2.59797 3.89252,-2.88052 z m -11.98249,2.16308 c 1.40885,4.07141 2.36474,6.48102 2.51024,9.78189 -1.5088,4.38684 -4.84271,4.43362 -8.70551,2.44501 -1.95164,-3.98167 -1.55182,-5.20859 -2.67725,-9.68519 -0.92996,-5.05245 1.87383,-5.99872 3.15362,-6.02969 1.57966,-0.0379 3.18588,-0.72377 5.7189,3.48798 z"
       inkscape:connector-curvature="0"
       style="fill:#cccccc;stroke:#000000;stroke-width:1.99993634" />
    <path
       id="path32"
       d="m 247.35381,531.57991 c -17.12699,-2.95764 -22.72,-11.20604 -29.70793,-25.81914 m 1.68909,-36.48095 c 0.15437,-0.31984 6.37557,-23.90197 19.37405,-31.56313 m 54.47319,26.31472 c 4.70038,7.46838 9.05029,8.957 17.05106,11.24144 m 41.18559,-4.43046 c 3.59709,4.66181 2.99863,6.48039 3.51548,12.29454 M 179.31468,412.00879 c 2.52668,0.28698 5.12992,0.26865 7.89005,-0.37863 m 103.57668,-1.73894 c 1.78209,0.40392 7.36688,1.33502 13.17562,2.23578 m -150.43878,72.90752 c 6.77411,4.71807 12.50946,8.61819 20.40205,9.5221 4.96166,0.56763 7.88817,1.30278 11.29737,2.25537"
       inkscape:connector-curvature="0"
       style="fill:none;stroke:#000000;stroke-width:1.00012767" />
    <path
       sodipodi:nodetypes="cccc"
       id="path34"
       d="m 480,448.12627 -118.55472,0.67067 m -209.10371,-1.07585 -138.23614,0.40518"
       inkscape:connector-curvature="0"
       style="fill:#333333;stroke:#552200;stroke-width:4" />
    <path
       id="path36"
       d="m 167.58776,464.37971 c -10.81784,0.16498 -8.72893,-66.25331 3.32696,-69.36898"
       inkscape:connector-curvature="0"
       style="fill:none;stroke:#b3b3b3;stroke-width:4.00017357;stroke-linecap:round" />
    <path
       id="path38"
       d="m 152.34157,447.72109 c 0,0 -1.96873,-49.37155 10.08715,-52.48722"
       inkscape:connector-curvature="0"
       style="fill:none;stroke:#552200;stroke-width:4.00017357;stroke-linecap:round" />
    <path
       id="path40"
       d="m 176.12689,464.37971 c -10.81847,0.16498 -8.72892,-66.25331 3.32695,-69.36898 m 4.61625,69.36898 c -10.81784,0.16498 -8.72892,-66.25331 3.32759,-69.36898 m 4.5631,69.36898 c -10.81846,0.16498 -8.72891,-66.25331 3.32697,-69.36898 m 5.1584,69.36898 c -10.81784,0.16498 -8.72829,-66.25331 3.32759,-69.36898 m 5.1584,69.36898 c -10.81784,0.16498 -8.72829,-66.25331 3.32759,-69.36898 m 5.1584,69.36898 c -10.81784,0.16498 -8.72892,-66.25331 3.32759,-69.36898 m 5.1584,69.36898 c -10.81783,0.16498 -8.72891,-66.25331 3.3276,-69.36898 m 5.1584,69.36898 c -10.81784,0.16498 -8.72892,-66.25331 3.32695,-69.36898 m 5.15904,69.36898 c -10.81784,0.16498 -8.72893,-66.25331 3.32695,-69.36898 m 5.15904,69.36898 c -10.81848,0.16498 -8.72893,-66.25331 3.32695,-69.36898 m 5.15904,69.36898 c -10.81847,0.16498 -8.72892,-66.25331 3.32696,-69.36898 m 30.61637,69.36898 c -10.81784,0.16498 -8.72892,-66.25331 3.32697,-69.36898 m 48.81374,69.36898 c -10.81784,0.16498 -8.72892,-66.25331 3.32759,-69.36898 m -30.01032,69.36898 c -10.81847,0.16498 -8.72892,-66.25331 3.32632,-69.36898 m 14.87105,69.36898 c -10.81847,0.16498 -8.72955,-66.25331 3.32633,-69.36898 m -38.49569,69.36898 c -10.81846,0.16498 -8.72891,-66.25331 3.32697,-69.36898 m -20.29832,69.36898 c -10.8191,0.16498 -8.72955,-66.25331 3.32633,-69.36898 m 22.13039,69.36898 c -10.81784,0.16498 -8.72829,-66.25331 3.32758,-69.36898 m 13.6444,69.36898 c -10.81784,0.16498 -8.72829,-66.25331 3.32759,-69.36898 m -54.24291,69.36898 c -10.81784,0.16498 -8.72892,-66.25331 3.32759,-69.36898 m -11.81358,69.36898 c -10.81784,0.16498 -8.72829,-66.25331 3.32759,-69.36898"
       inkscape:connector-curvature="0"
       style="fill:none;stroke:#b3b3b3;stroke-width:4.00017357;stroke-linecap:round" />
    <path
       id="path44"
       d="m 349.25909,395.07457 c 15.22721,-0.93868 12.18619,53.723 12.18619,53.723 M 170.91472,395.12198 c 13.00291,-2.36093 16.97325,72.54912 5.15903,69.14521 m -13.64503,-69.03332 c 13.00292,-2.3603 16.97326,72.43723 5.15904,69.03332 m 104.07265,-69.14521 c 13.00354,-2.36093 16.97324,72.54912 5.15903,69.14521 m 3.32696,-69.14521 c 13.00291,-2.36093 16.97324,72.54912 5.15903,69.14521 m 3.32696,-69.14521 c 13.00291,-2.36093 16.97325,72.54912 5.15903,69.14521 m 3.32697,-69.14521 c 13.0029,-2.36093 16.97324,72.54912 5.15902,69.14521 m 3.32697,-69.14521 c 13.0029,-2.36093 16.97261,72.54912 5.15903,69.14521 M 178.85792,395.12198 c 13.00354,-2.36093 16.97325,72.54912 5.15903,69.14521 m 2.78481,-69.14521 c 13.00291,-2.36093 16.97324,72.54912 5.15902,69.14521 m 3.32697,-69.14521 c 13.0029,-2.36093 16.97261,72.54912 5.15903,69.14521 m 3.32696,-69.14521 c 13.00291,-2.36093 16.97261,72.54912 5.1584,69.14521 m 3.32695,-69.14521 c 13.00355,-2.36093 16.97326,72.54912 5.15904,69.14521 m 3.32696,-69.14521 c 13.00354,-2.36093 16.97325,72.54912 5.15903,69.14521 m 3.32696,-69.14521 c 13.00291,-2.36093 16.97325,72.54912 5.15904,69.14521 m 3.32695,-69.14521 c 13.00292,-2.36093 16.97325,72.54912 5.15904,69.14521 m 3.32695,-69.14521 c 13.00292,-2.36093 16.97262,72.54912 5.15904,69.14521 m 3.32695,-69.14521 c 13.00292,-2.36093 16.97262,72.54912 5.15904,69.14521 m 3.32696,-69.14521 c 13.00291,-2.36093 16.97261,72.54912 5.1584,69.14521 m 45.75691,-69.14521 c 13.00292,-2.36093 16.97262,72.54912 5.15904,69.14521 m 3.32632,-69.14521 c 13.00355,-2.36093 16.97326,72.54912 5.15904,69.14521 m 3.32696,-69.14521 c 13.00354,-2.36093 16.97325,72.54912 5.15902,69.14521 m 4.55236,-69.14521 c 13.00354,-2.36093 16.97324,72.54912 5.15903,69.14521"
       inkscape:connector-curvature="0"
       style="fill:none;stroke:#552200;stroke-width:4.00017357;stroke-linecap:round" />
    <path
       id="path50"
       d="m 186.36651,393.80909 c -1.18617,-8.09985 -2.75127,-17.15356 -1.3361,-19.31095 1.81437,-2.76738 6.48501,-5.29455 10.7084,-5.29455 5.19383,0 8.57708,0.823 11.00635,5.07268 1.23931,2.16814 2.05729,4.52338 2.24138,3.90011 0.16638,-0.56257 1.10329,-5.25788 2.08322,-10.43486 1.09381,-5.78064 2.29769,-10.11817 3.12073,-11.24143 2.0459,-2.79014 5.52658,-5.3388 10.14599,-5.34007 5.05339,-0.002 10.01694,1.76106 12.12357,5.1675 0.84392,1.36472 1.79791,2.81162 1.00144,3.58849 0.25875,-0.0139 1.57776,-1.64728 2.93094,-3.62958 1.35382,-1.98293 3.6768,-5.10618 5.16282,-6.2977 2.25657,-1.80973 4.00324,-2.7756 7.0316,-2.74589 10.94816,-0.30911 19.91494,8.70226 19.33799,19.7174 l -1.87826,6.48544 2.7671,-3.23197 c 6.24334,-7.29266 15.70041,-8.07711 22.62382,-1.98799 1.00524,0.61757 1.86308,1.33248 2.58111,2.13526 a 10.671068,10.662426 0 0 1 1.74286,2.65929 c 0.44601,0.96713 0.75979,2.01137 0.94893,3.12262 0.18916,1.11125 0.25306,2.2895 0.19992,3.52528 -0.0531,1.23514 -0.22395,2.5278 -0.50421,3.86661 -3.11439,4.47217 -9.32547,3.73008 -10.19786,23.70222 -2.5539,3.30592 -3.80838,16.493 -5.50002,20.31158 -4.30435,7.02778 -13.55899,9.94308 -18.96221,7.61502 -2.967,-1.24526 -3.48574,-1.71682 -5.21597,-0.45764 -11.15439,5.43993 3.27699,1.61187 -10.55403,6.45067 -1.89154,0.65803 -9.31978,-4.4589 -11.21386,-4.00188 -1.89407,0.45701 -2.44698,1.2541 -6.43124,3.36282 -16.19512,0.80278 -12.45316,-3.80531 -16.48929,-7.75599 -1.68466,-0.85335 -4.11141,8.06888 -9.21097,2.95575 -1.40126,-1.40392 -3.14793,-2.5177 -4.64345,-4.03665 -5.63349,-10.47722 -5.29695,-14.39062 -10.99497,-24.89249 -0.93881,-3.0948 -3.86343,-9.43928 -4.62573,-12.9791 z"
       inkscape:connector-curvature="0"
       style="fill:#ffccaa;stroke:#ffccaa;stroke-width:3.00006413;stroke-linecap:round" />
    <path
       style="fill:none;stroke:#000000;stroke-width:1.99993634;stroke-linecap:round"
       inkscape:connector-curvature="0"
       d="m 300.31819,384.29205 c -2.73926,3.6005 -5.47851,7.63398 -5.47851,7.63398 -1.80171,3.6005 -3.60405,8.42603 -4.18037,12.09921 l -1.15327,8.21048 c -1.15327,7.20163 -3.89252,13.3236 -3.89252,13.3236 -2.23442,5.25726 -4.03613,6.84195 -4.03613,6.84195 -7.61361,6.58217 -13.04909,6.3565 -20.9031,1.87232 -0.72118,1.29645 -1.121,2.42161 -3.02709,3.74524 -7.34348,5.09861 -13.21358,3.59039 -18.88504,-0.86408 0,0 -2.4337,3.07331 -4.18036,3.74461 -3.28394,1.26296 -5.25899,1.28319 -6.8241,1.25158 -3.91529,-0.079 -6.79436,-1.20101 -9.17744,-3.41213 -1.60876,-1.49304 -2.59438,-6.04929 -2.59438,-6.04929 -3.13528,6.20415 -8.26142,6.79897 -15.26327,-0.22439 -4.83704,-9.32363 -6.50083,-15.48037 -10.62553,-24.7825 l -4.4195,-13.52904 -2.19773,-11.20414 c 0.52129,-7.98797 0.81799,-12.00124 10.28011,-14.91083 0,0 5.67209,-0.61632 9.22363,1.15233 5.58289,3.19405 6.27561,8.6776 6.27561,8.6776 0,0 2.4027,-15.06696 4.44101,-21.68769 4.12975,-5.55244 8.45183,-6.24523 16.10782,-5.08658 3.75714,0.90202 6.39265,3.53603 8.4164,7.49366 0,0 0.74271,-0.56447 4.5144,-6.67508 8.05138,-8.18265 18.37893,-3.97154 19.49361,-3.13526 10.86719,8.24208 10.89122,14.35774 9.0737,22.55557 6.02762,-7.52401 12.05841,-9.41211 19.24183,-6.70037 4.24489,1.89002 12.32474,7.65675 11.60545,14.78189 -0.30999,2.06447 -1.07799,3.56952 -1.83586,4.87672 z"
       id="path52" />
    <path
       style="fill:none;stroke:#000000;stroke-width:3.00006413;stroke-linecap:round"
       inkscape:connector-curvature="0"
       d="m 271.55413,370.2826 c -3.81661,7.87609 -6.92089,14.05749 -9.08319,22.2648 l -1.50817,14.21488 -0.86479,12.53157 -0.57696,9.50694 c -0.28847,3.67255 1.00903,5.90517 1.00903,5.90517 m -22.52641,-75.84621 -5.72838,32.05807 c 0,0 -0.33403,5.38368 -0.14424,8.06572 0.36376,5.14221 1.89976,12.29011 2.45078,15.26861 1.27979,6.91844 1.63533,13.74079 3.8204,22.75848 m -29.33595,-61.64965 c 0,0 -1.13682,11.61817 -0.86542,17.42915 0.33086,7.07457 1.82701,15.63839 3.02772,21.03029 1.20009,5.39126 2.60198,7.64663 3.45981,11.3786 0.85784,3.73198 1.15327,7.56256 1.15327,7.56256"
       id="path54" />
    <path
       id="path58"
       d="m 261.39548,431.23883 c 0.14361,-4.3211 0.36059,-8.42602 1.72959,-14.69213 1.80171,-3.67255 1.94594,-4.46522 6.05419,-5.47343 1.73022,0 4.10889,0.28824 6.05482,1.80025 2.2901,2.88558 3.6806,8.00882 2.8835,16.92473 -5.15144,3.79582 -11.07279,4.53413 -16.7221,1.44121 z M 250.4391,416.83495 c 3.91467,3.4589 6.32812,9.98922 6.91962,14.40388 -3.08593,7.24397 -9.81323,7.713 -17.08269,4.24904 -1.72959,-7.13019 -1.87383,-14.40389 -1.29688,-16.70856 3.01192,-3.83311 7.16951,-4.08342 11.45995,-1.94436 z m -26.66882,2.30467 c 2.48621,-0.46017 6.19844,0.21618 7.64018,1.72818 2.35336,3.72883 3.58444,7.42603 4.61308,12.96394 -3.71855,5.80593 -9.0718,5.21238 -16.14578,2.88052 -1.12417,-5.86091 -1.21337,-8.97406 0,-14.69212 0.79268,-1.22439 2.36854,-2.59797 3.89252,-2.88052 z m -11.98249,2.16371 c 1.40885,4.07078 2.36474,6.48039 2.51024,9.78126 -1.5088,4.38684 -4.84271,4.43362 -8.70551,2.44501 -1.95164,-3.98167 -1.55182,-5.20859 -2.67725,-9.68519 -0.92996,-5.05245 1.87383,-5.99872 3.15362,-6.02969 1.57966,-0.0379 3.18588,-0.72377 5.7189,3.48861 z"
       inkscape:connector-curvature="0"
       style="fill:#cccccc;stroke:#000000;stroke-width:1.99993634" />
    <text
       id="text62"
       word-spacing="0"
       letter-spacing="0"
       font-weight="400"
       font-size="168.228"
       transform="scale(1.5366132,-0.65078187)"
       y="-718.05127"
       x="279.43616"
       style="font-weight:400;font-size:106.38191223px;line-height:125%;font-family:Sans;letter-spacing:0;word-spacing:0;fill:#0000ff;stroke:#0000ff;stroke-width:1.50641763">
      <tspan
         style="fill:#0000ff;stroke:#0000ff;stroke-width:1.00000274"
         id="tspan60"
         y="-718.05127"
         x="279.43616">-</tspan>
    </text>
    <path
       transform="rotate(90)"
       sodipodi:open="true"
       d="m 235.54123,-269.98062 a 49.827702,21.673429 0 0 1 -40.1068,21.25698 49.827702,21.673429 0 0 1 -55.75569,-12.96292 49.827702,21.673429 0 0 1 18.352,-26.31486 49.827702,21.673429 0 0 1 62.9163,2.69537"
       sodipodi:end="5.4977871"
       sodipodi:start="0"
       sodipodi:ry="21.673429"
       sodipodi:rx="49.827702"
       sodipodi:cy="-269.98062"
       sodipodi:cx="185.71353"
       sodipodi:type="arc"
       id="path2217"
       style="opacity:1;fill:none;fill-opacity:1;fill-rule:nonzero;stroke:#ff0000;stroke-width:6;stroke-linecap:round;stroke-linejoin:miter;stroke-miterlimit:4;stroke-dasharray:none;stroke-dashoffset:0;stroke-opacity:1;marker-end:url(#Arrow1Send)" />
    <text
       id="text68"
       word-spacing="0"
       letter-spacing="0"
       font-weight="400"
       font-size="109.435"
       y="-14.975907"
       x="-271.36603"
       style="font-weight:400;font-size:69.20294952px;line-height:125%;font-family:Sans;letter-spacing:0;word-spacing:0;fill:#ff0000;stroke:#ff0000;stroke-width:1.50641358"
       transform="matrix(0,-0.99959496,-1.0004052,0,0,0)">
      <tspan
         style="fill:#ff0000;stroke:#ff0000;stroke-width:1"
         id="tspan66"
         y="-14.975907"
         x="-271.36603">+</tspan>
    </text>
    <path
       sodipodi:nodetypes="cccc"
       id="path70"
       d="m 480,204.14231 -118.55472,0.67131 m -209.10371,-1.07586 -138.23614,0.40455"
       inkscape:connector-curvature="0"
       style="fill:#552200;stroke:#552200;stroke-width:4" />
    <text
       id="text74"
       word-spacing="0"
       letter-spacing="0"
       font-weight="400"
       font-size="168.228"
       style="font-weight:400;font-size:106.38191223px;line-height:125%;font-family:Sans;letter-spacing:0;word-spacing:0;fill:#0000ff;stroke:#0000ff;stroke-width:1.50641763"
       x="279.43616"
       y="-343.14316"
       transform="scale(1.5366132,-0.65078187)">
      <tspan
         style="fill:#0000ff;stroke:#0000ff;stroke-width:1.00000274"
         id="tspan72"
         x="279.43616"
         y="-343.14316">-</tspan>
    </text>
    <path
       id="path76"
       d="m 167.58776,220.39575 c -10.81784,0.16561 -8.72893,-66.2533 3.32696,-69.36834"
       inkscape:connector-curvature="0"
       style="fill:none;stroke:#b3b3b3;stroke-width:4;stroke-linecap:round" />
    <path
       id="path78"
       d="m 152.34157,203.73776 c 0,0 -1.96873,-49.37155 10.08715,-52.48722"
       inkscape:connector-curvature="0"
       style="fill:none;stroke:#000000;stroke-width:4;stroke-linecap:round" />
    <path
       id="path80"
       d="m 176.12689,220.39575 c -10.81784,0.16561 -8.72892,-66.2533 3.32695,-69.36834 m 4.61625,69.36834 c -10.81784,0.16561 -8.72892,-66.2533 3.32759,-69.36834 m 4.5631,69.36834 c -10.81846,0.16561 -8.72891,-66.2533 3.32697,-69.36834 m 5.1584,69.36834 c -10.81784,0.16561 -8.72829,-66.2533 3.32759,-69.36834 m 5.1584,69.36834 c -10.81784,0.16561 -8.72829,-66.2533 3.32759,-69.36834 m 5.1584,69.36834 c -10.81784,0.16561 -8.72892,-66.2533 3.32759,-69.36834 m 5.1584,69.36834 c -10.81783,0.16561 -8.72891,-66.2533 3.3276,-69.36834 m 5.1584,69.36834 c -10.81784,0.16561 -8.72892,-66.2533 3.32695,-69.36834 m 5.15904,69.36834 c -10.81784,0.16561 -8.72893,-66.2533 3.32695,-69.36834 m 5.15904,69.36834 c -10.81848,0.16561 -8.72893,-66.2533 3.32695,-69.36834 m 5.15904,69.36834 c -10.81847,0.16561 -8.72892,-66.2533 3.32696,-69.36834 m 30.61637,69.36834 c -10.81784,0.16561 -8.72892,-66.2533 3.32697,-69.36834 m 48.81374,69.36834 c -10.81784,0.16561 -8.72892,-66.2533 3.32759,-69.36834 m -30.01032,69.36834 c -10.81847,0.16561 -8.72892,-66.2533 3.32632,-69.36834 m 14.87105,69.36834 c -10.81847,0.16561 -8.72955,-66.2533 3.32633,-69.36834 m -38.49569,69.36834 c -10.81783,0.16561 -8.72891,-66.2533 3.32697,-69.36834 m -20.29832,69.36834 c -10.8191,0.16561 -8.72955,-66.2533 3.32633,-69.36834 m 22.13039,69.36834 c -10.81784,0.16561 -8.72829,-66.2533 3.32758,-69.36834 m 13.6444,69.36834 c -10.81784,0.16561 -8.72829,-66.2533 3.32759,-69.36834 m -54.24291,69.36834 c -10.81784,0.16561 -8.72892,-66.2533 3.32759,-69.36834 m -11.81358,69.36834 c -10.81784,0.16561 -8.72829,-66.2533 3.32759,-69.36834"
       inkscape:connector-curvature="0"
       style="fill:none;stroke:#b3b3b3;stroke-width:4;stroke-linecap:round" />
    <path
       inkscape:connector-curvature="0"
       d="m 257.19108,320.99043 c -178.29503,0 -193.27426,-129.29171 -91.88519,-129.29171 h 183.77037 c 100.30538,0 86.40984,129.29171 -91.88518,129.29171 z"
       id="path82"
       style="fill:none;stroke:#008000;stroke-width:4;stroke-miterlimit:4;stroke-dasharray:none" />
    <path
       inkscape:connector-curvature="0"
       d="m 256.92031,299.47409 c -159.32585,0 -170.81996,-101.79494 -90.70345,-101.79494 h 181.40627 c 79.88498,0 68.62177,101.79494 -90.70345,101.79494 z"
       id="path84"
       style="fill:none;stroke:#008000;stroke-width:4;stroke-miterlimit:4;stroke-dasharray:none" />
    <path
       inkscape:connector-curvature="0"
       d="m 256.92031,276.44696 c -150.96639,0 -137.8882,-72.97579 -89.34774,-72.97579 h 179.82408 c 48.25451,0 60.48879,72.97579 -90.47697,72.97579 z"
       id="path86"
       style="fill:none;stroke:#008000;stroke-width:4;stroke-miterlimit:4;stroke-dasharray:none" />
    <path
       inkscape:connector-curvature="0"
       d="m 256.92031,253.30547 c -138.67454,0 -109.21081,-43.96702 -88.44435,-43.96702 h 177.48337 c 22.59726,0 49.63489,43.96702 -89.03965,43.96702 z"
       id="path88"
       style="fill:none;stroke:#008000;stroke-width:4;stroke-miterlimit:4;stroke-dasharray:none" />
    <path
       style="fill:none;stroke:#008000;stroke-width:4;stroke-miterlimit:4;stroke-dasharray:none"
       id="path92"
       d="m 257.19108,50.433376 c -178.29503,0 -193.27426,129.291684 -91.88519,129.291684 h 183.77037 c 100.30538,0 86.40984,-129.291684 -91.88518,-129.291684 z"
       inkscape:connector-curvature="0" />
    <path
       style="fill:none;stroke:#008000;stroke-width:4;stroke-miterlimit:4;stroke-dasharray:none"
       id="path94"
       d="m 256.92031,71.94972 c -159.32585,0 -170.81996,101.79492 -90.70345,101.79492 h 181.40627 c 79.88498,0 68.62177,-101.79492 -90.70345,-101.79492 z"
       inkscape:connector-curvature="0" />
    <path
       style="fill:none;stroke:#008000;stroke-width:4;stroke-miterlimit:4;stroke-dasharray:none"
       id="path96"
       d="m 256.92031,94.976209 c -150.96639,0 -137.8882,72.977041 -89.34774,72.977041 h 179.82408 c 48.25451,0 60.48879,-72.977041 -90.47697,-72.977041 z"
       inkscape:connector-curvature="0" />
    <path
       style="fill:none;stroke:#008000;stroke-width:4;stroke-miterlimit:4;stroke-dasharray:none"
       id="path98"
       d="m 256.92031,118.11834 c -138.67454,0 -109.21081,43.96637 -88.44435,43.96637 h 177.48337 c 22.59726,0 49.63489,-43.96637 -89.03965,-43.96637 z"
       inkscape:connector-curvature="0" />
    <path
       style="fill:none;stroke:#008000;stroke-width:4;stroke-miterlimit:4;stroke-dasharray:none"
       id="path104"
       d="M 71.78474,185.7119 H 442.13053"
       inkscape:connector-curvature="0" />
    <path
       id="path106"
       d="m 349.25909,151.09125 c 15.22721,-0.93869 12.18619,53.72237 12.18619,53.72237 M 170.91472,151.13803 c 13.00291,-2.3603 16.97325,72.54975 5.15903,69.14584 m -13.64503,-69.03333 c 13.00292,-2.36093 16.97326,72.43724 5.15904,69.03269 m 104.07265,-69.1452 c 13.00354,-2.3603 16.97324,72.54975 5.15903,69.14584 m 3.32696,-69.14584 c 13.00355,-2.3603 16.97324,72.54975 5.15903,69.14584 m 3.32696,-69.14584 c 13.00291,-2.3603 16.97325,72.54975 5.15903,69.14584 m 3.32697,-69.14584 c 13.0029,-2.3603 16.97324,72.54975 5.15902,69.14584 m 3.32697,-69.14584 c 13.0029,-2.3603 16.97261,72.54975 5.15903,69.14584 M 178.85792,151.13803 c 13.00354,-2.3603 16.97325,72.54975 5.15903,69.14584 m 2.78481,-69.14584 c 13.00291,-2.3603 16.97324,72.54975 5.15902,69.14584 m 3.32697,-69.14584 c 13.0029,-2.3603 16.97261,72.54975 5.15903,69.14584 m 3.32696,-69.14584 c 13.00291,-2.3603 16.97261,72.54975 5.1584,69.14584 m 3.32695,-69.14584 c 13.00355,-2.3603 16.97326,72.54975 5.15904,69.14584 m 3.32696,-69.14584 c 13.00354,-2.3603 16.97325,72.54975 5.15903,69.14584 m 3.32696,-69.14584 c 13.00291,-2.3603 16.97325,72.54975 5.15904,69.14584 m 3.32695,-69.14584 c 13.00292,-2.3603 16.97325,72.54975 5.15904,69.14584 m 3.32695,-69.14584 c 13.00292,-2.3603 16.97262,72.54975 5.15904,69.14584 m 3.32695,-69.14584 c 13.00292,-2.3603 16.97262,72.54975 5.15904,69.14584 m 3.32696,-69.14584 c 13.00291,-2.3603 16.97261,72.54975 5.1584,69.14584 m 45.75691,-69.14584 c 13.00292,-2.3603 16.97262,72.54975 5.15904,69.14584 m 3.32632,-69.14584 c 13.00355,-2.3603 16.97326,72.54975 5.15904,69.14584 m 13.03834,-69.14584 c 13.00354,-2.3603 16.97324,72.54975 5.15903,69.14584 m -14.87041,-69.14584 c 13.00354,-2.3603 16.97325,72.54975 5.15902,69.14584"
       inkscape:connector-curvature="0"
       style="fill:none;stroke:#552200;stroke-width:4;stroke-linecap:round" />
    <path
       style="fill:#008000;stroke:#008000;stroke-width:3.06496334"
       id="path112"
       d="m 97.81508,188.66049 9.6e-4,-3.05436 9.6e-4,-3.05503 2.58605,1.5288 2.58604,1.52875 -2.58732,1.52567 z m 309.19272,0 9.7e-4,-3.05436 9.6e-4,-3.05503 2.58604,1.5288 2.58604,1.52875 -2.58732,1.52567 z m -250.96864,47.6366 -0.77222,-2.95115 -0.77177,-2.95063 2.88495,0.79194 2.88504,0.79186 -2.11345,2.15857 z m 0,-101.62107 -0.77222,2.95118 -0.77177,2.9512 2.88495,-0.79186 2.88504,-0.79186 -2.11345,-2.15933 z m -13.70759,115.87923 -0.77239,-2.95047 -0.77169,-2.95126 2.88488,0.7917 2.8845,0.79205 -2.11263,2.15929 z m -12.88281,13.22765 -0.77244,-2.95044 -0.77183,-2.95124 2.88498,0.79194 2.88509,0.79171 -2.11317,2.15948 z m -13.39274,13.83676 -0.77194,-2.95112 -0.77216,-2.95122 2.88494,0.79189 2.88488,0.79178 -2.11316,2.15941 z m 0,-183.950643 -0.77194,2.951199 -0.77216,2.951183 2.88494,-0.791861 2.88488,-0.791864 -2.11316,-2.159327 z m 13.39274,13.409403 -0.77244,2.95119 -0.77183,2.95055 2.88498,-0.79188 2.88509,-0.79185 -2.11317,-2.15868 z m 12.88281,13.51852 -0.77239,2.95118 -0.77169,2.95054 2.88488,-0.79186 2.8845,-0.79186 -2.11263,-2.15868 z m 215.46883,109.6169 -0.77171,2.95032 -0.77178,2.95127 2.88504,-0.79175 2.8844,-0.79183 -2.11265,-2.15942 z m 13.39263,13.83597 -0.7717,2.95117 -0.77167,2.95039 2.88437,-0.79166 2.88502,-0.79189 -2.11268,-2.15867 z m 26.59063,27.48654 -0.77184,2.95058 -0.77163,2.95117 2.88431,-0.79201 2.88501,-0.79172 -2.11262,-2.15939 z m -13.70774,-14.25951 -0.77166,2.95193 -0.77231,2.95056 2.88498,-0.79183 2.88502,-0.792 -2.11335,-2.15857 z m -26.27552,-116.13067 -0.77171,-2.95054 -0.77178,-2.95119 2.88504,0.79186 2.8844,0.79186 -2.11265,2.15933 z m 13.39263,-13.83605 -0.7717,-2.95119 -0.77167,-2.95054 2.88437,0.79187 2.88502,0.79186 -2.11268,2.15868 z m 26.59063,-27.485874 -0.77184,-2.95119 -0.77163,-2.951188 2.88431,0.791862 2.88501,0.791861 -2.11262,2.159326 z m -13.70774,14.258104 -0.77166,-2.95119 -0.77231,-2.95054 2.88498,0.79187 2.88502,0.79186 -2.11335,2.15867 z"
       inkscape:connector-curvature="0" />
    <g
       transform="rotate(-90,278.24189,243.04402)"
       id="g969">
      <path
         d="m 254.77885,249.78038 q 0,-0.6862 0.36351,-0.6862 0.0808,0 0.56547,0.1211 0.76742,0.20182 0.8482,0.40364 0.0405,0.12111 0.0405,0.60547 v 0.2422 q 0,2.42187 0.28272,3.06771 0,0.0405 0.0405,0.0807 0.0808,0.20183 0.92898,0.44402 0.84821,0.24219 7.91657,1.97786 1.81758,0.48438 2.86774,0.72657 11.30939,2.82552 11.39017,2.82552 0.16156,-0.0807 0.20195,-0.0807 0.24235,-0.40364 0.24235,-2.86589 v -0.80729 q 0.24233,-0.36329 1.00977,-0.16147 0.60586,0.16147 0.72703,0.2422 0.12116,0.0807 0.12116,0.56511 v 0.16145 q -0.0808,2.90627 -0.0808,5.89325 0,4.9245 0.0808,5.16668 v 0.40365 q -0.28273,0.28255 -0.4443,0.28255 -0.16156,0 -0.68663,-0.12108 -0.52508,-0.12111 -0.64626,-0.28256 -0.0808,-0.12109 -0.0808,-0.9284 0,-1.2513 -0.12117,-2.58334 -0.12118,-0.56509 -0.4443,-0.76692 -0.56547,-0.28256 -7.71461,-2.0586 -1.89837,-0.44402 -3.67556,-0.88803 -11.14782,-2.82553 -11.39017,-2.82553 -0.28273,0 -0.36351,0.40365 -0.0808,0.40366 -0.16156,2.09897 v 1.29167 q -0.32313,0.24218 -0.36352,0.24218 -0.0405,0 -0.72702,-0.12108 -0.52509,-0.16147 -0.76744,-0.40365 v -0.64584 q 0.0808,-1.4935 0.0808,-5.52997 0,-1.45312 0,-2.66407 0,-1.21094 0,-1.9375 0,-0.72656 -0.0405,-0.88803 z"
         id="path14"
         inkscape:connector-curvature="0"
         style="fill:#ff0000;stroke:#ff0000;stroke-width:0.05296609" />
      <path
         d="m 292.01904,268.87289 q 0.32313,0 0.56547,0.20183 0.24235,0.20182 0.24235,0.60547 0,0.40364 -0.32312,0.60546 -0.32314,0.20183 -0.76743,0.32292 -0.4443,0.1211 -1.09055,0.52475 -0.64625,0.40364 -1.09054,1.08985 -0.28274,0.444 -0.72704,0.444 -0.36351,0 -0.60586,-0.28255 -0.24235,-0.28254 -0.40391,-0.6862 -0.16156,-0.40365 -0.76742,-1.21094 -0.60586,-0.80729 -1.61563,-1.53386 -0.60586,-0.5651 -0.60586,-0.88802 0,-0.32292 0.24234,-0.56511 0.24235,-0.24218 0.56548,-0.24218 0.32313,0 0.92899,0.444 0.60586,0.44401 1.00975,0.92839 0.40391,0.48438 0.4443,0.52475 v -6.90237 l 0.0405,-6.90236 q 0.0405,-0.0405 0.12116,-0.1211 0.0808,-0.0807 0.12118,-0.20182 0.0405,-0.12109 0.20194,-0.12109 0.16158,0 0.32314,-0.0807 0.28272,0 0.80781,0.52474 v 14.49092 q 1.53485,-0.96876 2.38305,-0.96876 z"
         id="path16-3"
         inkscape:connector-curvature="0"
         style="fill:#ff0000;stroke:#ff0000;stroke-width:0.05296609" />
    </g>
    <g
       transform="rotate(-90,435.95903,165.87752)"
       id="g973">
      <path
         d="m 454.64356,157.23807 q 0,-1.08976 0.0405,-1.29157 0.0403,-0.20181 0.4443,-0.20181 1.09054,0 1.33288,0.44398 0.0405,0.0403 0.0405,5.24698 0,10.45359 -0.0808,11.01865 -0.40391,2.54277 -1.81758,4.23796 -1.41367,1.69518 -3.71595,1.73554 -2.58501,0 -4.64494,-2.34097 -2.05992,-2.34096 -2.78695,-5.36806 l -0.12118,-0.40362 q -0.36351,2.58313 -1.85796,4.23796 -1.49447,1.65481 -3.71596,1.69517 -2.94853,0 -5.6951,-2.90602 -2.74656,-2.90602 -3.11009,-7.14396 -0.0403,-0.28254 -0.0403,-8.51626 0,-8.07228 0.0808,-8.19337 0.12116,-0.16144 0.32312,-0.16144 0.28275,0 0.56548,0.0807 0.76743,0.20181 0.8482,0.40361 0.0403,0.16145 0.0403,0.60543 v 0.24216 q 0,1.08976 0.12118,2.42168 0.12118,0.56506 0.48469,0.76687 0.16155,0.12108 11.22863,2.90602 11.06706,2.78493 11.67292,2.78493 0.28273,0 0.36351,-2.30059 z m -3.75634,16.87106 q 1.21172,0 2.26188,-0.60542 1.05016,-0.60543 1.37329,-1.97771 0.0808,-0.28254 0.12117,-3.71325 0,-0.80723 0,-1.69519 0,-0.88794 -0.0403,-1.41264 v -0.5247 q -0.0403,-0.60542 -0.40391,-0.76687 -0.16157,-0.0807 -4.84689,-1.29156 -0.12117,0 -0.24235,-0.0403 l -5.08922,-1.2512 v 3.26927 q 0,3.26927 0.0808,3.75361 0.40391,2.42169 2.34266,4.31867 1.93876,1.89699 4.44298,1.93735 z m -12.72307,-2.17953 q 1.77718,0 2.94851,-0.9283 1.17134,-0.92831 1.37329,-2.42169 0.0405,-0.24216 0.0405,-3.34999 0,-4.76264 -0.0405,-4.803 -0.0808,0 -2.94852,-0.68616 -2.86774,-0.68614 -5.6951,-1.41264 l -2.82735,-0.72651 q -0.16156,0 -0.16156,0.48434 0,0.48434 -0.0808,3.26928 0,3.59216 0.0403,3.87469 0.28274,2.50241 2.34266,4.6012 2.05993,2.09878 5.00846,2.09878 z"
         id="path20-6"
         inkscape:connector-curvature="0"
         style="fill:#008000;stroke:#008000;stroke-width:0.05296608" />
      <path
         d="m 466.19532,171.12238 q 0.32313,0 0.56546,0.20181 0.24235,0.20181 0.24235,0.60543 0,0.4036 -0.32312,0.60541 -0.32313,0.20181 -0.76743,0.32289 -0.44429,0.12108 -1.09054,0.5247 -0.64626,0.40361 -1.09056,1.08975 -0.28274,0.44398 -0.72704,0.44398 -0.36351,0 -0.60586,-0.28252 -0.24233,-0.28254 -0.4039,-0.68615 -0.16156,-0.40361 -0.76742,-1.21084 -0.60586,-0.80722 -1.61563,-1.53374 -0.60586,-0.56506 -0.60586,-0.88795 0,-0.32289 0.24234,-0.56506 0.24234,-0.24216 0.56547,-0.24216 0.32312,0 0.92898,0.44397 0.60586,0.44398 1.00978,0.92832 0.40391,0.48434 0.44429,0.5247 v -6.90181 l 0.0403,-6.9018 q 0.0405,-0.0403 0.12118,-0.12108 0.0808,-0.0807 0.12117,-0.2018 0.0403,-0.12109 0.20195,-0.12109 0.16156,0 0.32313,-0.0807 0.28273,0 0.80782,0.5247 v 14.48974 q 1.53484,-0.96867 2.38305,-0.96867 z"
         id="path22-5"
         inkscape:connector-curvature="0"
         style="fill:#008000;stroke:#008000;stroke-width:0.05296608" />
    </g>
    <path
       transform="rotate(90)"
       sodipodi:open="true"
       d="m 135.88583,-269.98062 a 49.827702,21.673429 0 0 1 30.75947,-20.02364 49.827702,21.673429 0 0 1 54.30174,4.69821"
       sodipodi:end="5.4977871"
       sodipodi:start="3.1415927"
       sodipodi:ry="21.673429"
       sodipodi:rx="49.827702"
       sodipodi:cy="-269.98062"
       sodipodi:cx="185.71353"
       sodipodi:type="arc"
       id="path2217-6"
       style="opacity:1;fill:none;fill-opacity:1;fill-rule:nonzero;stroke:#ff0000;stroke-width:6;stroke-linecap:round;stroke-linejoin:miter;stroke-miterlimit:4;stroke-dasharray:none;stroke-dashoffset:0;stroke-opacity:1;marker-end:url(#Arrow1Send-8)" />
    <path
       sodipodi:nodetypes="cccc"
       id="path70-1"
       d="m 480,204.14231 -118.55472,0.67131 m -0.004,-1.07586 0.564,0.40455"
       inkscape:connector-curvature="0"
       style="fill:#552200;stroke:#552200;stroke-width:4" />
  </g>
</svg>
