<?xml version="1.0" encoding="UTF-8" standalone="no"?>
<!DOCTYPE svg PUBLIC "-//W3C//DTD SVG 1.1//EN" "http://www.w3.org/Graphics/SVG/1.1/DTD/svg11.dtd">
<svg width="100%" height="100%" viewBox="0 0 752 543" version="1.1" xmlns="http://www.w3.org/2000/svg" xmlns:xlink="http://www.w3.org/1999/xlink" xml:space="preserve" xmlns:serif="http://www.serif.com/" style="fill-rule:evenodd;clip-rule:evenodd;stroke-miterlimit:10;">
    <g id="Ebene-1" serif:id="Ebene 1" transform="matrix(1,0,0,-1,0,469.072)">
        <g transform="matrix(-1,0,0,1,94.8909,385.406)">
            <path d="M-470.031,0L0,0" style="fill:none;fill-rule:nonzero;stroke:rgb(29,113,184);stroke-width:25px;"/>
        </g>
        <g transform="matrix(-1,0,0,1,536.717,385.406)">
            <path d="M-17.999,0L0,0" style="fill:none;fill-rule:nonzero;stroke:black;stroke-width:2px;"/>
        </g>
        <g transform="matrix(-1,0,0,1,464.33,385.406)">
            <path d="M-18,0L0,0" style="fill:none;fill-rule:nonzero;stroke:black;stroke-width:2px;"/>
        </g>
        <g transform="matrix(-1,0,0,1,395.17,385.406)">
            <path d="M-17.998,0L0,0" style="fill:none;fill-rule:nonzero;stroke:black;stroke-width:2px;"/>
        </g>
        <g transform="matrix(-1,0,0,1,318.333,385.406)">
            <path d="M-17.999,0L0,0" style="fill:none;fill-rule:nonzero;stroke:black;stroke-width:2px;"/>
        </g>
        <g transform="matrix(-1,0,0,1,249.773,385.406)">
            <path d="M-18,0L0,0" style="fill:none;fill-rule:nonzero;stroke:black;stroke-width:2px;"/>
        </g>
        <g transform="matrix(-1,0,0,1,177.503,385.406)">
            <path d="M-17.999,0L0,0" style="fill:none;fill-rule:nonzero;stroke:black;stroke-width:2px;"/>
        </g>
        <g transform="matrix(-1,0,0,1,104.146,385.406)">
            <path d="M-17.999,0L0,0" style="fill:none;fill-rule:nonzero;stroke:black;stroke-width:2px;"/>
        </g>
        <g transform="matrix(-1,0,0,1,94.0502,82.666)">
            <path d="M-470.566,0L0,0" style="fill:none;fill-rule:nonzero;stroke:rgb(227,6,19);stroke-width:25px;"/>
        </g>
        <g transform="matrix(-1,0,0,1,539.787,82.666)">
            <path d="M-18,0L0,0" style="fill:none;fill-rule:nonzero;stroke:black;stroke-width:2px;"/>
        </g>
        <g transform="matrix(0,-1,-1,0,557.787,82.666)">
            <path d="M-9,9L9,9" style="fill:none;fill-rule:nonzero;stroke:black;stroke-width:2px;"/>
        </g>
        <g transform="matrix(-1,0,0,1,466.33,82.666)">
            <path d="M-18,0L0,0" style="fill:none;fill-rule:nonzero;stroke:black;stroke-width:2px;"/>
        </g>
        <g transform="matrix(0,-1,-1,0,484.33,82.666)">
            <path d="M-9,9L9,9" style="fill:none;fill-rule:nonzero;stroke:black;stroke-width:2px;"/>
        </g>
        <g transform="matrix(-1,0,0,1,397.169,82.666)">
            <path d="M-18,0L0,0" style="fill:none;fill-rule:nonzero;stroke:black;stroke-width:2px;"/>
        </g>
        <g transform="matrix(0,-1,-1,0,415.169,82.666)">
            <path d="M-9,9L9,9" style="fill:none;fill-rule:nonzero;stroke:black;stroke-width:2px;"/>
        </g>
        <g transform="matrix(-1,0,0,1,323.238,82.666)">
            <path d="M-18,0L0,0" style="fill:none;fill-rule:nonzero;stroke:black;stroke-width:2px;"/>
        </g>
        <g transform="matrix(0,-1,-1,0,341.238,82.666)">
            <path d="M-9,9L9,9" style="fill:none;fill-rule:nonzero;stroke:black;stroke-width:2px;"/>
        </g>
        <g transform="matrix(-1,0,0,1,252.439,82.666)">
            <path d="M-18,0L0,0" style="fill:none;fill-rule:nonzero;stroke:black;stroke-width:2px;"/>
        </g>
        <g transform="matrix(0,-1,-1,0,270.439,82.666)">
            <path d="M-9,9L9,9" style="fill:none;fill-rule:nonzero;stroke:black;stroke-width:2px;"/>
        </g>
        <g transform="matrix(-1,0,0,1,179.502,82.666)">
            <path d="M-18,0L0,0" style="fill:none;fill-rule:nonzero;stroke:black;stroke-width:2px;"/>
        </g>
        <g transform="matrix(0,-1,-1,0,197.502,82.666)">
            <path d="M-9,9L9,9" style="fill:none;fill-rule:nonzero;stroke:black;stroke-width:2px;"/>
        </g>
        <g transform="matrix(-1,0,0,1,107.739,82.666)">
            <path d="M-18,0L0,0" style="fill:none;fill-rule:nonzero;stroke:black;stroke-width:2px;"/>
        </g>
        <g transform="matrix(0,-1,-1,0,125.739,82.666)">
            <path d="M-9,9L9,9" style="fill:none;fill-rule:nonzero;stroke:black;stroke-width:2px;"/>
        </g>
    </g>
    <g id="Ebene-2" serif:id="Ebene 2">
        <g transform="matrix(1,0,0,-1,0,469.42)">
            <g opacity="0.7">
                <g transform="matrix(0.00239841,-0.999997,-0.999997,-0.00239841,253.125,234.11)">
                    <path d="M-137.053,137.383L137.712,137.383" style="fill:none;fill-rule:nonzero;stroke:black;stroke-width:2px;"/>
                </g>
                <g transform="matrix(1,0,0,1,127.708,371.987)">
                    <path d="M0,-11.063L-2.192,-13.115L-12.288,-2.303L-22.334,-13.164L-24.536,-11.123L-12.298,2.101L0,-11.063Z" style="fill-rule:nonzero;"/>
                </g>
            </g>
        </g>
        <g transform="matrix(1,0,0,-1,0,469.42)">
            <g opacity="0.7">
                <g transform="matrix(0.00239477,-0.999997,-0.999997,-0.00239477,325.221,234.109)">
                    <path d="M-137.054,137.383L137.712,137.383" style="fill:none;fill-rule:nonzero;stroke:black;stroke-width:2px;"/>
                </g>
                <g transform="matrix(1,0,0,1,199.804,371.987)">
                    <path d="M0,-11.063L-2.192,-13.115L-12.288,-2.303L-22.334,-13.164L-24.536,-11.123L-12.298,2.101L0,-11.063Z" style="fill-rule:nonzero;"/>
                </g>
            </g>
        </g>
        <g transform="matrix(1,0,0,-1,0,469.42)">
            <g opacity="0.7">
                <g transform="matrix(0.00239476,-0.999997,-0.999997,-0.00239476,397.492,233.947)">
                    <path d="M-137.054,137.383L137.712,137.383" style="fill:none;fill-rule:nonzero;stroke:black;stroke-width:2px;"/>
                </g>
                <g transform="matrix(1,0,0,1,272.074,371.824)">
                    <path d="M0,-11.063L-2.192,-13.115L-12.287,-2.303L-22.334,-13.164L-24.536,-11.123L-12.298,2.101L0,-11.063Z" style="fill-rule:nonzero;"/>
                </g>
            </g>
        </g>
        <g transform="matrix(1,0,0,-1,0,469.42)">
            <g opacity="0.7">
                <g transform="matrix(0.00239476,-0.999997,-0.999997,-0.00239476,542.222,233.947)">
                    <path d="M-137.054,137.383L137.712,137.383" style="fill:none;fill-rule:nonzero;stroke:black;stroke-width:2px;"/>
                </g>
                <g transform="matrix(1,0,0,1,416.804,371.824)">
                    <path d="M0,-11.063L-2.192,-13.115L-12.287,-2.303L-22.334,-13.164L-24.536,-11.123L-12.298,2.101L0,-11.063Z" style="fill-rule:nonzero;"/>
                </g>
            </g>
        </g>
        <g transform="matrix(1,0,0,-1,0,469.42)">
            <g opacity="0.7">
                <g transform="matrix(0.00239476,-0.999997,-0.999997,-0.00239476,612.049,233.947)">
                    <path d="M-137.054,137.383L137.712,137.383" style="fill:none;fill-rule:nonzero;stroke:black;stroke-width:2px;"/>
                </g>
                <g transform="matrix(1,0,0,1,486.631,371.824)">
                    <path d="M0,-11.063L-2.192,-13.115L-12.287,-2.303L-22.334,-13.164L-24.536,-11.123L-12.298,2.101L0,-11.063Z" style="fill-rule:nonzero;"/>
                </g>
            </g>
        </g>
        <g transform="matrix(1,0,0,-1,0,469.42)">
            <g opacity="0.7">
                <g transform="matrix(0.00239477,-0.999997,-0.999997,-0.00239477,684.839,233.373)">
                    <path d="M-137.054,137.383L137.712,137.383" style="fill:none;fill-rule:nonzero;stroke:black;stroke-width:2px;"/>
                </g>
                <g transform="matrix(1,0,0,1,559.422,371.25)">
                    <path d="M0,-11.063L-2.192,-13.115L-12.287,-2.303L-22.334,-13.164L-24.536,-11.123L-12.298,2.101L0,-11.063Z" style="fill-rule:nonzero;"/>
                </g>
            </g>
        </g>
        <g transform="matrix(1,0,0,-1,0,469.42)">
            <g opacity="0.7">
                <g transform="matrix(0.00239477,-0.999997,-0.999997,-0.00239477,468.291,233.373)">
                    <path d="M-137.054,137.383L137.712,137.383" style="fill:none;fill-rule:nonzero;stroke:black;stroke-width:2px;"/>
                </g>
                <g transform="matrix(1,0,0,1,342.874,371.25)">
                    <path d="M0,-11.063L-2.192,-13.115L-12.287,-2.303L-22.334,-13.164L-24.536,-11.123L-12.298,2.101L0,-11.063Z" style="fill-rule:nonzero;"/>
                </g>
            </g>
        </g>
        <g transform="matrix(0,12.2061,12.2061,0,28.2857,234.725)">
            <ellipse cx="0" cy="-0" rx="1" ry="1" style="fill:url(#_Radial1);"/>
        </g>
        <g transform="matrix(1,0,0,1,28.285,234.726)">
            <path d="M0,0L46.106,0" style="fill:none;fill-rule:nonzero;stroke:black;stroke-width:2.93px;"/>
        </g>
        <g transform="matrix(-0.925694,0.378272,0.378272,0.925694,70.6979,237.487)">
            <path d="M-14.048,2.758L1.713,2.758L-3.747,-1.452L-2.797,-8.279L-14.048,2.758Z" style="fill-rule:nonzero;"/>
        </g>
        <g transform="matrix(1,0,0,1,0.83965,4.8344)">
            <g transform="matrix(16,0,0,16,22.6914,276.685)">
                <path d="M0.558,-0L0.098,-0L0.098,-0.727L0.194,-0.727L0.194,-0.086L0.558,-0.086L0.558,-0Z" style="fill-rule:nonzero;"/>
            </g>
            <g transform="matrix(16,0,0,16,31.6005,276.685)">
                <path d="M0.514,-0L0.423,-0L0.423,-0.058C0.415,-0.053 0.404,-0.045 0.39,-0.035C0.376,-0.025 0.363,-0.017 0.35,-0.011C0.334,-0.004 0.317,0.003 0.297,0.008C0.277,0.013 0.254,0.015 0.227,0.015C0.178,0.015 0.136,-0.001 0.102,-0.034C0.068,-0.066 0.051,-0.108 0.051,-0.158C0.051,-0.2 0.06,-0.233 0.077,-0.259C0.095,-0.284 0.12,-0.304 0.153,-0.319C0.187,-0.333 0.226,-0.343 0.273,-0.349C0.319,-0.354 0.369,-0.358 0.423,-0.36L0.423,-0.375C0.423,-0.395 0.419,-0.413 0.412,-0.426C0.405,-0.44 0.394,-0.451 0.38,-0.458C0.367,-0.466 0.352,-0.471 0.333,-0.474C0.315,-0.476 0.296,-0.478 0.276,-0.478C0.252,-0.478 0.225,-0.474 0.196,-0.468C0.166,-0.462 0.136,-0.452 0.104,-0.44L0.099,-0.44L0.099,-0.534C0.117,-0.539 0.143,-0.544 0.177,-0.55C0.211,-0.556 0.244,-0.559 0.277,-0.559C0.315,-0.559 0.349,-0.555 0.377,-0.549C0.406,-0.543 0.43,-0.532 0.451,-0.517C0.472,-0.502 0.487,-0.482 0.498,-0.458C0.509,-0.435 0.514,-0.405 0.514,-0.37L0.514,-0ZM0.423,-0.134L0.423,-0.286C0.395,-0.285 0.362,-0.282 0.324,-0.279C0.286,-0.276 0.256,-0.271 0.234,-0.265C0.208,-0.257 0.186,-0.246 0.17,-0.23C0.154,-0.214 0.146,-0.192 0.146,-0.165C0.146,-0.133 0.155,-0.11 0.174,-0.094C0.193,-0.078 0.222,-0.07 0.26,-0.07C0.292,-0.07 0.322,-0.077 0.349,-0.089C0.375,-0.102 0.4,-0.117 0.423,-0.134Z" style="fill-rule:nonzero;"/>
            </g>
            <g transform="matrix(16,0,0,16,41.2126,276.685)">
                <path d="M0.533,-0L0.441,-0L0.441,-0.057C0.415,-0.034 0.387,-0.017 0.358,-0.004C0.33,0.009 0.299,0.015 0.265,0.015C0.2,0.015 0.148,-0.01 0.11,-0.06C0.072,-0.11 0.053,-0.18 0.053,-0.269C0.053,-0.315 0.059,-0.356 0.073,-0.392C0.086,-0.428 0.104,-0.459 0.126,-0.484C0.148,-0.509 0.174,-0.528 0.203,-0.541C0.233,-0.554 0.263,-0.561 0.295,-0.561C0.324,-0.561 0.349,-0.558 0.371,-0.552C0.393,-0.545 0.417,-0.536 0.441,-0.523L0.441,-0.76L0.533,-0.76L0.533,-0ZM0.441,-0.134L0.441,-0.447C0.416,-0.458 0.394,-0.466 0.375,-0.47C0.355,-0.474 0.334,-0.477 0.311,-0.477C0.259,-0.477 0.219,-0.459 0.19,-0.423C0.162,-0.387 0.147,-0.336 0.147,-0.271C0.147,-0.206 0.159,-0.156 0.181,-0.123C0.203,-0.089 0.238,-0.072 0.287,-0.072C0.313,-0.072 0.34,-0.078 0.366,-0.09C0.393,-0.101 0.418,-0.116 0.441,-0.134Z" style="fill-rule:nonzero;"/>
            </g>
            <g transform="matrix(16,0,0,16,51.1842,276.685)">
                <path d="M0.542,-0L0.451,-0L0.451,-0.061C0.42,-0.036 0.39,-0.017 0.362,-0.004C0.333,0.009 0.302,0.015 0.268,0.015C0.211,0.015 0.166,-0.002 0.134,-0.037C0.102,-0.072 0.086,-0.124 0.086,-0.191L0.086,-0.545L0.178,-0.545L0.178,-0.235C0.178,-0.207 0.18,-0.184 0.182,-0.164C0.185,-0.144 0.19,-0.127 0.199,-0.113C0.208,-0.099 0.219,-0.089 0.233,-0.082C0.247,-0.076 0.267,-0.072 0.294,-0.072C0.318,-0.072 0.344,-0.078 0.372,-0.091C0.4,-0.103 0.426,-0.119 0.451,-0.138L0.451,-0.545L0.542,-0.545L0.542,-0Z" style="fill-rule:nonzero;"/>
            </g>
            <g transform="matrix(16,0,0,16,61.312,276.685)">
                <path d="M0.546,-0L0.455,-0L0.455,-0.311C0.455,-0.336 0.453,-0.359 0.45,-0.381C0.447,-0.403 0.442,-0.42 0.434,-0.433C0.426,-0.446 0.414,-0.456 0.399,-0.463C0.384,-0.47 0.364,-0.473 0.339,-0.473C0.314,-0.473 0.288,-0.467 0.261,-0.455C0.233,-0.442 0.207,-0.426 0.182,-0.407L0.182,-0L0.09,-0L0.09,-0.545L0.182,-0.545L0.182,-0.485C0.211,-0.509 0.24,-0.527 0.271,-0.541C0.302,-0.554 0.333,-0.561 0.365,-0.561C0.424,-0.561 0.469,-0.543 0.5,-0.507C0.531,-0.472 0.546,-0.421 0.546,-0.354L0.546,-0Z" style="fill-rule:nonzero;"/>
            </g>
            <g transform="matrix(16,0,0,16,71.4398,276.685)">
                <path d="M0.533,-0.062C0.533,0.03 0.512,0.098 0.47,0.142C0.428,0.185 0.363,0.207 0.276,0.207C0.247,0.207 0.219,0.205 0.191,0.2C0.164,0.196 0.137,0.191 0.11,0.183L0.11,0.089L0.115,0.089C0.13,0.095 0.153,0.102 0.186,0.111C0.219,0.12 0.251,0.124 0.284,0.124C0.315,0.124 0.341,0.12 0.361,0.113C0.382,0.105 0.398,0.095 0.409,0.082C0.421,0.069 0.429,0.054 0.434,0.036C0.438,0.018 0.441,-0.002 0.441,-0.024L0.441,-0.074C0.413,-0.052 0.387,-0.036 0.362,-0.025C0.336,-0.014 0.304,-0.008 0.265,-0.008C0.2,-0.008 0.148,-0.032 0.11,-0.079C0.072,-0.126 0.053,-0.192 0.053,-0.278C0.053,-0.325 0.059,-0.365 0.073,-0.399C0.086,-0.433 0.104,-0.463 0.126,-0.487C0.148,-0.51 0.173,-0.528 0.204,-0.541C0.234,-0.554 0.264,-0.561 0.294,-0.561C0.326,-0.561 0.352,-0.557 0.373,-0.551C0.395,-0.545 0.417,-0.535 0.441,-0.522L0.447,-0.545L0.533,-0.545L0.533,-0.062ZM0.441,-0.15L0.441,-0.447C0.417,-0.458 0.394,-0.466 0.373,-0.471C0.352,-0.476 0.331,-0.478 0.31,-0.478C0.26,-0.478 0.22,-0.461 0.191,-0.427C0.162,-0.393 0.147,-0.344 0.147,-0.28C0.147,-0.219 0.158,-0.172 0.18,-0.141C0.201,-0.109 0.237,-0.093 0.287,-0.093C0.313,-0.093 0.34,-0.098 0.367,-0.109C0.394,-0.119 0.418,-0.133 0.441,-0.15Z" style="fill-rule:nonzero;"/>
            </g>
            <g transform="matrix(16,0,0,16,81.4114,276.685)">
                <path d="M0.286,-0.406L0.169,-0.406L0.169,-0.545L0.286,-0.545L0.286,-0.406ZM0.286,-0L0.169,-0L0.169,-0.139L0.286,-0.139L0.286,-0Z" style="fill-rule:nonzero;"/>
            </g>
            <g transform="matrix(16,0,0,16,33.4274,295.885)">
                <path d="M0.595,-0.545L0.424,0.201L0.332,0.201L0.393,-0.062C0.362,-0.04 0.332,-0.022 0.305,-0.009C0.277,0.004 0.245,0.011 0.209,0.011C0.158,0.011 0.117,-0.005 0.087,-0.036C0.057,-0.067 0.042,-0.114 0.042,-0.176C0.042,-0.228 0.05,-0.278 0.066,-0.324C0.082,-0.371 0.104,-0.412 0.132,-0.447C0.16,-0.482 0.193,-0.51 0.23,-0.53C0.268,-0.55 0.308,-0.561 0.35,-0.561C0.379,-0.561 0.406,-0.557 0.43,-0.551C0.455,-0.545 0.477,-0.536 0.498,-0.524L0.509,-0.545L0.595,-0.545ZM0.481,-0.448C0.459,-0.459 0.438,-0.468 0.417,-0.473C0.396,-0.479 0.374,-0.481 0.35,-0.481C0.315,-0.481 0.285,-0.473 0.258,-0.456C0.232,-0.439 0.21,-0.417 0.191,-0.39C0.174,-0.364 0.161,-0.333 0.152,-0.297C0.142,-0.261 0.138,-0.225 0.138,-0.192C0.138,-0.152 0.146,-0.122 0.163,-0.103C0.18,-0.083 0.208,-0.073 0.247,-0.073C0.274,-0.073 0.302,-0.08 0.331,-0.094C0.36,-0.107 0.386,-0.122 0.41,-0.139L0.481,-0.448Z" style="fill-rule:nonzero;"/>
            </g>
            <g transform="matrix(16,0,0,16,49.0216,295.885)">
                <path d="M0.688,-0.038L0.124,-0.288L0.124,-0.349L0.688,-0.599L0.688,-0.511L0.243,-0.318L0.688,-0.125L0.688,-0.038Z" style="fill-rule:nonzero;"/>
            </g>
            <g transform="matrix(16,0,0,16,67.7409,295.885)">
                <path d="M0.57,-0.364C0.57,-0.233 0.549,-0.137 0.509,-0.076C0.468,-0.015 0.404,0.015 0.318,0.015C0.231,0.015 0.167,-0.016 0.127,-0.078C0.087,-0.139 0.067,-0.235 0.067,-0.363C0.067,-0.492 0.087,-0.587 0.128,-0.649C0.169,-0.711 0.232,-0.742 0.318,-0.742C0.406,-0.742 0.469,-0.71 0.51,-0.648C0.55,-0.585 0.57,-0.49 0.57,-0.364ZM0.441,-0.142C0.453,-0.168 0.461,-0.199 0.465,-0.235C0.469,-0.271 0.471,-0.314 0.471,-0.364C0.471,-0.413 0.469,-0.456 0.465,-0.493C0.461,-0.529 0.453,-0.56 0.441,-0.585C0.43,-0.611 0.414,-0.629 0.394,-0.642C0.375,-0.655 0.349,-0.661 0.318,-0.661C0.288,-0.661 0.262,-0.655 0.242,-0.642C0.222,-0.629 0.207,-0.61 0.195,-0.584C0.184,-0.56 0.176,-0.529 0.172,-0.49C0.168,-0.451 0.166,-0.409 0.166,-0.363C0.166,-0.312 0.168,-0.27 0.171,-0.235C0.175,-0.201 0.183,-0.171 0.194,-0.144C0.205,-0.118 0.22,-0.099 0.24,-0.085C0.26,-0.072 0.286,-0.065 0.318,-0.065C0.349,-0.065 0.374,-0.072 0.395,-0.084C0.415,-0.097 0.43,-0.116 0.441,-0.142Z" style="fill-rule:nonzero;"/>
            </g>
        </g>
        <g transform="matrix(1,0,0,1,0,8.66667)">
            <g transform="matrix(22,0,0,22,510.381,494.333)">
                <path d="M0.558,-0L0.098,-0L0.098,-0.727L0.194,-0.727L0.194,-0.086L0.558,-0.086L0.558,-0Z" style="fill-rule:nonzero;"/>
            </g>
            <g transform="matrix(22,0,0,22,522.628,494.333)">
                <path d="M0.555,-0.272C0.555,-0.184 0.532,-0.113 0.487,-0.062C0.441,-0.011 0.38,0.015 0.304,0.015C0.227,0.015 0.165,-0.011 0.12,-0.062C0.074,-0.113 0.052,-0.184 0.052,-0.272C0.052,-0.361 0.074,-0.432 0.12,-0.483C0.165,-0.535 0.227,-0.561 0.304,-0.561C0.38,-0.561 0.441,-0.535 0.487,-0.483C0.532,-0.432 0.555,-0.361 0.555,-0.272ZM0.46,-0.272C0.46,-0.343 0.447,-0.396 0.419,-0.43C0.391,-0.464 0.353,-0.481 0.304,-0.481C0.254,-0.481 0.215,-0.464 0.188,-0.43C0.16,-0.396 0.146,-0.343 0.146,-0.272C0.146,-0.204 0.16,-0.152 0.188,-0.117C0.216,-0.082 0.254,-0.064 0.304,-0.064C0.353,-0.064 0.391,-0.081 0.419,-0.116C0.447,-0.151 0.46,-0.203 0.46,-0.272Z" style="fill-rule:nonzero;"/>
            </g>
            <g transform="matrix(22,0,0,22,535.982,494.333)">
                <path d="M0.494,-0.034C0.463,-0.02 0.434,-0.008 0.406,-0C0.379,0.008 0.35,0.012 0.319,0.012C0.279,0.012 0.243,0.006 0.21,-0.005C0.178,-0.017 0.149,-0.034 0.126,-0.058C0.102,-0.081 0.084,-0.111 0.071,-0.146C0.058,-0.182 0.051,-0.224 0.051,-0.272C0.051,-0.361 0.076,-0.431 0.125,-0.482C0.174,-0.533 0.238,-0.558 0.319,-0.558C0.35,-0.558 0.381,-0.554 0.411,-0.545C0.441,-0.536 0.469,-0.525 0.494,-0.513L0.494,-0.411L0.489,-0.411C0.461,-0.432 0.432,-0.449 0.402,-0.461C0.372,-0.473 0.343,-0.479 0.315,-0.479C0.263,-0.479 0.222,-0.461 0.192,-0.426C0.162,-0.391 0.146,-0.34 0.146,-0.272C0.146,-0.206 0.161,-0.156 0.191,-0.12C0.22,-0.085 0.262,-0.067 0.315,-0.067C0.333,-0.067 0.352,-0.07 0.372,-0.075C0.391,-0.08 0.408,-0.086 0.423,-0.094C0.437,-0.101 0.449,-0.108 0.461,-0.115C0.473,-0.123 0.482,-0.13 0.489,-0.135L0.494,-0.135L0.494,-0.034Z" style="fill-rule:nonzero;"/>
            </g>
            <g transform="matrix(22,0,0,22,547.446,494.333)">
                <path d="M0.546,-0L0.455,-0L0.455,-0.311C0.455,-0.336 0.453,-0.359 0.45,-0.381C0.447,-0.403 0.442,-0.42 0.434,-0.433C0.426,-0.446 0.414,-0.456 0.399,-0.463C0.384,-0.47 0.364,-0.473 0.339,-0.473C0.314,-0.473 0.288,-0.467 0.261,-0.455C0.233,-0.442 0.207,-0.426 0.182,-0.407L0.182,-0L0.09,-0L0.09,-0.76L0.182,-0.76L0.182,-0.485C0.211,-0.509 0.24,-0.527 0.271,-0.541C0.302,-0.554 0.333,-0.561 0.365,-0.561C0.424,-0.561 0.469,-0.543 0.5,-0.507C0.531,-0.472 0.546,-0.421 0.546,-0.354L0.546,-0Z" style="fill-rule:nonzero;"/>
            </g>
            <g transform="matrix(22,0,0,22,561.369,494.333)">
                <path d="M0.57,-0.277C0.57,-0.231 0.564,-0.19 0.551,-0.154C0.538,-0.117 0.521,-0.087 0.499,-0.062C0.476,-0.036 0.451,-0.017 0.423,-0.004C0.395,0.009 0.365,0.015 0.332,0.015C0.301,0.015 0.274,0.011 0.25,0.004C0.227,-0.003 0.205,-0.013 0.182,-0.025L0.176,-0L0.09,-0L0.09,-0.76L0.182,-0.76L0.182,-0.488C0.208,-0.509 0.235,-0.527 0.264,-0.54C0.293,-0.554 0.326,-0.561 0.362,-0.561C0.426,-0.561 0.477,-0.536 0.514,-0.486C0.552,-0.437 0.57,-0.367 0.57,-0.277ZM0.476,-0.274C0.476,-0.34 0.465,-0.389 0.443,-0.423C0.422,-0.456 0.387,-0.473 0.339,-0.473C0.313,-0.473 0.286,-0.467 0.258,-0.456C0.231,-0.444 0.206,-0.429 0.182,-0.411L0.182,-0.099C0.208,-0.087 0.231,-0.079 0.249,-0.074C0.268,-0.07 0.289,-0.067 0.313,-0.067C0.364,-0.067 0.404,-0.084 0.432,-0.117C0.461,-0.151 0.476,-0.203 0.476,-0.274Z" style="fill-rule:nonzero;"/>
            </g>
            <g transform="matrix(22,0,0,22,575.078,494.333)">
                <rect x="0.091" y="-0.76" width="0.092" height="0.76" style="fill-rule:nonzero;"/>
            </g>
            <g transform="matrix(22,0,0,22,581.116,494.333)">
                <path d="M0.547,-0.263L0.145,-0.263C0.145,-0.23 0.15,-0.2 0.16,-0.176C0.17,-0.151 0.184,-0.13 0.202,-0.114C0.219,-0.099 0.239,-0.087 0.262,-0.079C0.285,-0.071 0.311,-0.067 0.339,-0.067C0.376,-0.067 0.413,-0.075 0.451,-0.09C0.489,-0.104 0.515,-0.119 0.531,-0.133L0.536,-0.133L0.536,-0.033C0.505,-0.02 0.474,-0.009 0.441,-0C0.409,0.008 0.375,0.013 0.34,0.013C0.249,0.013 0.179,-0.012 0.128,-0.061C0.077,-0.11 0.052,-0.179 0.052,-0.27C0.052,-0.359 0.076,-0.43 0.125,-0.482C0.173,-0.534 0.237,-0.561 0.317,-0.561C0.39,-0.561 0.447,-0.539 0.487,-0.496C0.527,-0.453 0.547,-0.392 0.547,-0.313L0.547,-0.263ZM0.458,-0.333C0.457,-0.382 0.445,-0.419 0.421,-0.445C0.397,-0.472 0.361,-0.485 0.312,-0.485C0.263,-0.485 0.224,-0.47 0.195,-0.441C0.165,-0.412 0.149,-0.376 0.145,-0.333L0.458,-0.333Z" style="fill-rule:nonzero;"/>
            </g>
            <g transform="matrix(22,0,0,22,594.223,494.333)">
                <path d="M0.546,-0L0.455,-0L0.455,-0.311C0.455,-0.336 0.453,-0.359 0.45,-0.381C0.447,-0.403 0.442,-0.42 0.434,-0.433C0.426,-0.446 0.414,-0.456 0.399,-0.463C0.384,-0.47 0.364,-0.473 0.339,-0.473C0.314,-0.473 0.288,-0.467 0.261,-0.455C0.233,-0.442 0.207,-0.426 0.182,-0.407L0.182,-0L0.09,-0L0.09,-0.545L0.182,-0.545L0.182,-0.485C0.211,-0.509 0.24,-0.527 0.271,-0.541C0.302,-0.554 0.333,-0.561 0.365,-0.561C0.424,-0.561 0.469,-0.543 0.5,-0.507C0.531,-0.472 0.546,-0.421 0.546,-0.354L0.546,-0Z" style="fill-rule:nonzero;"/>
            </g>
            <g transform="matrix(22,0,0,22,608.146,494.333)">
                <path d="M0.533,-0L0.441,-0L0.441,-0.057C0.415,-0.034 0.387,-0.017 0.358,-0.004C0.33,0.009 0.299,0.015 0.265,0.015C0.2,0.015 0.148,-0.01 0.11,-0.06C0.072,-0.11 0.053,-0.18 0.053,-0.269C0.053,-0.315 0.059,-0.356 0.073,-0.392C0.086,-0.428 0.104,-0.459 0.126,-0.484C0.148,-0.509 0.174,-0.528 0.203,-0.541C0.233,-0.554 0.263,-0.561 0.295,-0.561C0.324,-0.561 0.349,-0.558 0.371,-0.552C0.393,-0.545 0.417,-0.536 0.441,-0.523L0.441,-0.76L0.533,-0.76L0.533,-0ZM0.441,-0.134L0.441,-0.447C0.416,-0.458 0.394,-0.466 0.375,-0.47C0.355,-0.474 0.334,-0.477 0.311,-0.477C0.259,-0.477 0.219,-0.459 0.19,-0.423C0.162,-0.387 0.147,-0.336 0.147,-0.271C0.147,-0.206 0.159,-0.156 0.181,-0.123C0.203,-0.089 0.238,-0.072 0.287,-0.072C0.313,-0.072 0.34,-0.078 0.366,-0.09C0.393,-0.101 0.418,-0.116 0.441,-0.134Z" style="fill-rule:nonzero;"/>
            </g>
            <g transform="matrix(22,0,0,22,621.855,494.333)">
                <path d="M0.547,-0.263L0.145,-0.263C0.145,-0.23 0.15,-0.2 0.16,-0.176C0.17,-0.151 0.184,-0.13 0.202,-0.114C0.219,-0.099 0.239,-0.087 0.262,-0.079C0.285,-0.071 0.311,-0.067 0.339,-0.067C0.376,-0.067 0.413,-0.075 0.451,-0.09C0.489,-0.104 0.515,-0.119 0.531,-0.133L0.536,-0.133L0.536,-0.033C0.505,-0.02 0.474,-0.009 0.441,-0C0.409,0.008 0.375,0.013 0.34,0.013C0.249,0.013 0.179,-0.012 0.128,-0.061C0.077,-0.11 0.052,-0.179 0.052,-0.27C0.052,-0.359 0.076,-0.43 0.125,-0.482C0.173,-0.534 0.237,-0.561 0.317,-0.561C0.39,-0.561 0.447,-0.539 0.487,-0.496C0.527,-0.453 0.547,-0.392 0.547,-0.313L0.547,-0.263ZM0.458,-0.333C0.457,-0.382 0.445,-0.419 0.421,-0.445C0.397,-0.472 0.361,-0.485 0.312,-0.485C0.263,-0.485 0.224,-0.47 0.195,-0.441C0.165,-0.412 0.149,-0.376 0.145,-0.333L0.458,-0.333Z" style="fill-rule:nonzero;"/>
            </g>
        </g>
        <g opacity="0.6">
            <g>
                <g transform="matrix(22,0,0,22,45.5229,489.667)">
                    <path d="M0.704,-0.054C0.664,-0.035 0.621,-0.02 0.574,-0.006C0.527,0.007 0.481,0.014 0.438,0.014C0.381,0.014 0.329,0.006 0.282,-0.009C0.235,-0.025 0.194,-0.048 0.161,-0.08C0.128,-0.111 0.102,-0.151 0.083,-0.198C0.065,-0.245 0.056,-0.301 0.056,-0.364C0.056,-0.48 0.09,-0.572 0.158,-0.639C0.226,-0.707 0.319,-0.74 0.438,-0.74C0.479,-0.74 0.521,-0.735 0.564,-0.725C0.607,-0.715 0.654,-0.699 0.704,-0.675L0.704,-0.56L0.695,-0.56C0.685,-0.568 0.67,-0.578 0.651,-0.591C0.632,-0.604 0.613,-0.614 0.594,-0.623C0.572,-0.633 0.546,-0.641 0.518,-0.648C0.489,-0.654 0.457,-0.658 0.421,-0.658C0.34,-0.658 0.275,-0.632 0.228,-0.579C0.18,-0.527 0.157,-0.456 0.157,-0.367C0.157,-0.273 0.181,-0.2 0.231,-0.148C0.28,-0.095 0.348,-0.069 0.433,-0.069C0.464,-0.069 0.496,-0.072 0.527,-0.079C0.558,-0.085 0.585,-0.093 0.608,-0.103L0.608,-0.281L0.414,-0.281L0.414,-0.366L0.704,-0.366L0.704,-0.054Z" style="fill-rule:nonzero;"/>
                </g>
                <g transform="matrix(22,0,0,22,62.5799,489.667)">
                    <path d="M0.431,-0.445L0.426,-0.445C0.412,-0.449 0.399,-0.451 0.386,-0.452C0.373,-0.454 0.358,-0.455 0.34,-0.455C0.312,-0.455 0.285,-0.448 0.258,-0.436C0.232,-0.423 0.207,-0.407 0.182,-0.387L0.182,-0L0.09,-0L0.09,-0.545L0.182,-0.545L0.182,-0.465C0.219,-0.494 0.251,-0.515 0.279,-0.527C0.306,-0.539 0.335,-0.545 0.364,-0.545C0.38,-0.545 0.391,-0.545 0.398,-0.544C0.406,-0.543 0.416,-0.542 0.431,-0.54L0.431,-0.445Z" style="fill-rule:nonzero;"/>
                </g>
                <g transform="matrix(22,0,0,22,71.967,489.667)">
                    <path d="M0.547,-0.263L0.145,-0.263C0.145,-0.23 0.15,-0.2 0.16,-0.176C0.17,-0.151 0.184,-0.13 0.202,-0.114C0.219,-0.099 0.239,-0.087 0.262,-0.079C0.285,-0.071 0.311,-0.067 0.339,-0.067C0.376,-0.067 0.413,-0.075 0.451,-0.09C0.489,-0.104 0.515,-0.119 0.531,-0.133L0.536,-0.133L0.536,-0.033C0.505,-0.02 0.474,-0.009 0.441,-0C0.409,0.008 0.375,0.013 0.34,0.013C0.249,0.013 0.179,-0.012 0.128,-0.061C0.077,-0.11 0.052,-0.179 0.052,-0.27C0.052,-0.359 0.076,-0.43 0.125,-0.482C0.173,-0.534 0.237,-0.561 0.317,-0.561C0.39,-0.561 0.447,-0.539 0.487,-0.496C0.527,-0.453 0.547,-0.392 0.547,-0.313L0.547,-0.263ZM0.458,-0.333C0.457,-0.382 0.445,-0.419 0.421,-0.445C0.397,-0.472 0.361,-0.485 0.312,-0.485C0.263,-0.485 0.224,-0.47 0.195,-0.441C0.165,-0.412 0.149,-0.376 0.145,-0.333L0.458,-0.333Z" style="fill-rule:nonzero;"/>
                </g>
                <g transform="matrix(22,0,0,22,85.0709,489.667)">
                    <path d="M0.546,-0L0.455,-0L0.455,-0.311C0.455,-0.336 0.453,-0.359 0.45,-0.381C0.447,-0.403 0.442,-0.42 0.434,-0.433C0.426,-0.446 0.414,-0.456 0.399,-0.463C0.384,-0.47 0.364,-0.473 0.339,-0.473C0.314,-0.473 0.288,-0.467 0.261,-0.455C0.233,-0.442 0.207,-0.426 0.182,-0.407L0.182,-0L0.09,-0L0.09,-0.545L0.182,-0.545L0.182,-0.485C0.211,-0.509 0.24,-0.527 0.271,-0.541C0.302,-0.554 0.333,-0.561 0.365,-0.561C0.424,-0.561 0.469,-0.543 0.5,-0.507C0.531,-0.472 0.546,-0.421 0.546,-0.354L0.546,-0Z" style="fill-rule:nonzero;"/>
                </g>
                <g transform="matrix(22,0,0,22,98.9911,489.667)">
                    <path d="M0.486,-0L0.045,-0L0.045,-0.068L0.363,-0.469L0.052,-0.469L0.052,-0.545L0.478,-0.545L0.478,-0.48L0.158,-0.078L0.486,-0.078L0.486,-0Z" style="fill-rule:nonzero;"/>
                </g>
                <g transform="matrix(22,0,0,22,110.419,489.667)">
                    <path d="M0.547,-0.263L0.145,-0.263C0.145,-0.23 0.15,-0.2 0.16,-0.176C0.17,-0.151 0.184,-0.13 0.202,-0.114C0.219,-0.099 0.239,-0.087 0.262,-0.079C0.285,-0.071 0.311,-0.067 0.339,-0.067C0.376,-0.067 0.413,-0.075 0.451,-0.09C0.489,-0.104 0.515,-0.119 0.531,-0.133L0.536,-0.133L0.536,-0.033C0.505,-0.02 0.474,-0.009 0.441,-0C0.409,0.008 0.375,0.013 0.34,0.013C0.249,0.013 0.179,-0.012 0.128,-0.061C0.077,-0.11 0.052,-0.179 0.052,-0.27C0.052,-0.359 0.076,-0.43 0.125,-0.482C0.173,-0.534 0.237,-0.561 0.317,-0.561C0.39,-0.561 0.447,-0.539 0.487,-0.496C0.527,-0.453 0.547,-0.392 0.547,-0.313L0.547,-0.263ZM0.458,-0.333C0.457,-0.382 0.445,-0.419 0.421,-0.445C0.397,-0.472 0.361,-0.485 0.312,-0.485C0.263,-0.485 0.224,-0.47 0.195,-0.441C0.165,-0.412 0.149,-0.376 0.145,-0.333L0.458,-0.333Z" style="fill-rule:nonzero;"/>
                </g>
                <g transform="matrix(22,0,0,22,123.523,489.667)">
                    <path d="M0.546,-0L0.455,-0L0.455,-0.311C0.455,-0.336 0.453,-0.359 0.45,-0.381C0.447,-0.403 0.442,-0.42 0.434,-0.433C0.426,-0.446 0.414,-0.456 0.399,-0.463C0.384,-0.47 0.364,-0.473 0.339,-0.473C0.314,-0.473 0.288,-0.467 0.261,-0.455C0.233,-0.442 0.207,-0.426 0.182,-0.407L0.182,-0L0.09,-0L0.09,-0.545L0.182,-0.545L0.182,-0.485C0.211,-0.509 0.24,-0.527 0.271,-0.541C0.302,-0.554 0.333,-0.561 0.365,-0.561C0.424,-0.561 0.469,-0.543 0.5,-0.507C0.531,-0.472 0.546,-0.421 0.546,-0.354L0.546,-0Z" style="fill-rule:nonzero;"/>
                </g>
                <g transform="matrix(22,0,0,22,145.191,489.667)">
                    <path d="M0.562,-0.545L0.341,-0L0.249,-0L0.03,-0.545L0.129,-0.545L0.298,-0.111L0.466,-0.545L0.562,-0.545Z" style="fill-rule:nonzero;"/>
                </g>
                <g transform="matrix(22,0,0,22,158.016,489.667)">
                    <path d="M0.555,-0.272C0.555,-0.184 0.532,-0.113 0.487,-0.062C0.441,-0.011 0.38,0.015 0.304,0.015C0.227,0.015 0.165,-0.011 0.12,-0.062C0.074,-0.113 0.052,-0.184 0.052,-0.272C0.052,-0.361 0.074,-0.432 0.12,-0.483C0.165,-0.535 0.227,-0.561 0.304,-0.561C0.38,-0.561 0.441,-0.535 0.487,-0.483C0.532,-0.432 0.555,-0.361 0.555,-0.272ZM0.46,-0.272C0.46,-0.343 0.447,-0.396 0.419,-0.43C0.391,-0.464 0.353,-0.481 0.304,-0.481C0.254,-0.481 0.215,-0.464 0.188,-0.43C0.16,-0.396 0.146,-0.343 0.146,-0.272C0.146,-0.204 0.16,-0.152 0.188,-0.117C0.216,-0.082 0.254,-0.064 0.304,-0.064C0.353,-0.064 0.391,-0.081 0.419,-0.116C0.447,-0.151 0.46,-0.203 0.46,-0.272Z" style="fill-rule:nonzero;"/>
                </g>
                <g transform="matrix(22,0,0,22,171.367,489.667)">
                    <path d="M0.546,-0L0.455,-0L0.455,-0.311C0.455,-0.336 0.453,-0.359 0.45,-0.381C0.447,-0.403 0.442,-0.42 0.434,-0.433C0.426,-0.446 0.414,-0.456 0.399,-0.463C0.384,-0.47 0.364,-0.473 0.339,-0.473C0.314,-0.473 0.288,-0.467 0.261,-0.455C0.233,-0.442 0.207,-0.426 0.182,-0.407L0.182,-0L0.09,-0L0.09,-0.545L0.182,-0.545L0.182,-0.485C0.211,-0.509 0.24,-0.527 0.271,-0.541C0.302,-0.554 0.333,-0.561 0.365,-0.561C0.424,-0.561 0.469,-0.543 0.5,-0.507C0.531,-0.472 0.546,-0.421 0.546,-0.354L0.546,-0Z" style="fill-rule:nonzero;"/>
                </g>
                <g transform="matrix(22,0,0,22,39.8689,516.067)">
                    <path d="M0.577,-0L0.098,-0L0.098,-0.727L0.577,-0.727L0.577,-0.641L0.194,-0.641L0.194,-0.442L0.577,-0.442L0.577,-0.356L0.194,-0.356L0.194,-0.086L0.577,-0.086L0.577,-0Z" style="fill-rule:nonzero;"/>
                </g>
                <g transform="matrix(22,0,0,22,53.7777,516.067)">
                    <rect x="0.075" y="-0.362" width="0.305" height="0.088" style="fill-rule:nonzero;"/>
                </g>
                <g transform="matrix(22,0,0,22,71.5081,516.067)">
                    <path d="M0.542,-0L0.451,-0L0.451,-0.061C0.42,-0.036 0.39,-0.017 0.362,-0.004C0.333,0.009 0.302,0.015 0.268,0.015C0.211,0.015 0.166,-0.002 0.134,-0.037C0.102,-0.072 0.086,-0.124 0.086,-0.191L0.086,-0.545L0.178,-0.545L0.178,-0.235C0.178,-0.207 0.18,-0.184 0.182,-0.164C0.185,-0.144 0.19,-0.127 0.199,-0.113C0.208,-0.099 0.219,-0.089 0.233,-0.082C0.247,-0.076 0.267,-0.072 0.294,-0.072C0.318,-0.072 0.344,-0.078 0.372,-0.091C0.4,-0.103 0.426,-0.119 0.451,-0.138L0.451,-0.545L0.542,-0.545L0.542,-0Z" style="fill-rule:nonzero;"/>
                </g>
                <g transform="matrix(22,0,0,22,85.4276,516.067)">
                    <path d="M0.546,-0L0.455,-0L0.455,-0.311C0.455,-0.336 0.453,-0.359 0.45,-0.381C0.447,-0.403 0.442,-0.42 0.434,-0.433C0.426,-0.446 0.414,-0.456 0.399,-0.463C0.384,-0.47 0.364,-0.473 0.339,-0.473C0.314,-0.473 0.288,-0.467 0.261,-0.455C0.233,-0.442 0.207,-0.426 0.182,-0.407L0.182,-0L0.09,-0L0.09,-0.545L0.182,-0.545L0.182,-0.485C0.211,-0.509 0.24,-0.527 0.271,-0.541C0.302,-0.554 0.333,-0.561 0.365,-0.561C0.424,-0.561 0.469,-0.543 0.5,-0.507C0.531,-0.472 0.546,-0.421 0.546,-0.354L0.546,-0Z" style="fill-rule:nonzero;"/>
                </g>
                <g transform="matrix(22,0,0,22,99.3472,516.067)">
                    <path d="M0.533,-0L0.441,-0L0.441,-0.057C0.415,-0.034 0.387,-0.017 0.358,-0.004C0.33,0.009 0.299,0.015 0.265,0.015C0.2,0.015 0.148,-0.01 0.11,-0.06C0.072,-0.11 0.053,-0.18 0.053,-0.269C0.053,-0.315 0.059,-0.356 0.073,-0.392C0.086,-0.428 0.104,-0.459 0.126,-0.484C0.148,-0.509 0.174,-0.528 0.203,-0.541C0.233,-0.554 0.263,-0.561 0.295,-0.561C0.324,-0.561 0.349,-0.558 0.371,-0.552C0.393,-0.545 0.417,-0.536 0.441,-0.523L0.441,-0.76L0.533,-0.76L0.533,-0ZM0.441,-0.134L0.441,-0.447C0.416,-0.458 0.394,-0.466 0.375,-0.47C0.355,-0.474 0.334,-0.477 0.311,-0.477C0.259,-0.477 0.219,-0.459 0.19,-0.423C0.162,-0.387 0.147,-0.336 0.147,-0.271C0.147,-0.206 0.159,-0.156 0.181,-0.123C0.203,-0.089 0.238,-0.072 0.287,-0.072C0.313,-0.072 0.34,-0.078 0.366,-0.09C0.393,-0.101 0.418,-0.116 0.441,-0.134Z" style="fill-rule:nonzero;"/>
                </g>
                <g transform="matrix(22,0,0,22,120.794,516.067)">
                    <path d="M0.646,-0.224C0.646,-0.188 0.639,-0.156 0.625,-0.128C0.612,-0.1 0.593,-0.077 0.57,-0.06C0.543,-0.038 0.513,-0.023 0.48,-0.014C0.448,-0.005 0.406,-0 0.355,-0L0.098,-0L0.098,-0.727L0.313,-0.727C0.366,-0.727 0.406,-0.725 0.432,-0.721C0.458,-0.717 0.484,-0.709 0.508,-0.697C0.535,-0.683 0.554,-0.665 0.566,-0.643C0.578,-0.621 0.584,-0.595 0.584,-0.564C0.584,-0.529 0.575,-0.5 0.558,-0.476C0.54,-0.452 0.517,-0.432 0.487,-0.417L0.487,-0.414C0.536,-0.403 0.575,-0.382 0.604,-0.349C0.632,-0.316 0.646,-0.274 0.646,-0.224ZM0.483,-0.551C0.483,-0.569 0.48,-0.584 0.475,-0.596C0.469,-0.608 0.459,-0.618 0.446,-0.625C0.431,-0.634 0.412,-0.639 0.391,-0.641C0.369,-0.643 0.342,-0.645 0.31,-0.645L0.194,-0.645L0.194,-0.435L0.319,-0.435C0.35,-0.435 0.374,-0.436 0.392,-0.439C0.41,-0.442 0.426,-0.449 0.441,-0.458C0.457,-0.468 0.468,-0.481 0.474,-0.496C0.48,-0.512 0.483,-0.53 0.483,-0.551ZM0.545,-0.22C0.545,-0.249 0.541,-0.272 0.532,-0.29C0.523,-0.307 0.507,-0.321 0.484,-0.333C0.469,-0.342 0.45,-0.347 0.427,-0.349C0.405,-0.352 0.378,-0.353 0.346,-0.353L0.194,-0.353L0.194,-0.083L0.322,-0.083C0.365,-0.083 0.399,-0.085 0.426,-0.089C0.453,-0.094 0.475,-0.102 0.493,-0.113C0.511,-0.126 0.524,-0.14 0.533,-0.157C0.541,-0.173 0.545,-0.194 0.545,-0.22Z" style="fill-rule:nonzero;"/>
                </g>
                <g transform="matrix(22,0,0,22,135.982,516.067)">
                    <rect x="0.075" y="-0.362" width="0.305" height="0.088" style="fill-rule:nonzero;"/>
                </g>
                <g transform="matrix(22,0,0,22,145.969,516.067)">
                    <path d="M0.562,-0.641L0.194,-0.641L0.194,-0.436L0.51,-0.436L0.51,-0.35L0.194,-0.35L0.194,-0L0.098,-0L0.098,-0.727L0.562,-0.727L0.562,-0.641Z" style="fill-rule:nonzero;"/>
                </g>
                <g transform="matrix(22,0,0,22,158.074,516.067)">
                    <path d="M0.547,-0.263L0.145,-0.263C0.145,-0.23 0.15,-0.2 0.16,-0.176C0.17,-0.151 0.184,-0.13 0.202,-0.114C0.219,-0.099 0.239,-0.087 0.262,-0.079C0.285,-0.071 0.311,-0.067 0.339,-0.067C0.376,-0.067 0.413,-0.075 0.451,-0.09C0.489,-0.104 0.515,-0.119 0.531,-0.133L0.536,-0.133L0.536,-0.033C0.505,-0.02 0.474,-0.009 0.441,-0C0.409,0.008 0.375,0.013 0.34,0.013C0.249,0.013 0.179,-0.012 0.128,-0.061C0.077,-0.11 0.052,-0.179 0.052,-0.27C0.052,-0.359 0.076,-0.43 0.125,-0.482C0.173,-0.534 0.237,-0.561 0.317,-0.561C0.39,-0.561 0.447,-0.539 0.487,-0.496C0.527,-0.453 0.547,-0.392 0.547,-0.313L0.547,-0.263ZM0.458,-0.333C0.457,-0.382 0.445,-0.419 0.421,-0.445C0.397,-0.472 0.361,-0.485 0.312,-0.485C0.263,-0.485 0.224,-0.47 0.195,-0.441C0.165,-0.412 0.149,-0.376 0.145,-0.333L0.458,-0.333Z" style="fill-rule:nonzero;"/>
                </g>
                <g transform="matrix(22,0,0,22,171.177,516.067)">
                    <rect x="0.091" y="-0.76" width="0.092" height="0.76" style="fill-rule:nonzero;"/>
                </g>
                <g transform="matrix(22,0,0,22,177.212,516.067)">
                    <path d="M0.533,-0L0.441,-0L0.441,-0.057C0.415,-0.034 0.387,-0.017 0.358,-0.004C0.33,0.009 0.299,0.015 0.265,0.015C0.2,0.015 0.148,-0.01 0.11,-0.06C0.072,-0.11 0.053,-0.18 0.053,-0.269C0.053,-0.315 0.059,-0.356 0.073,-0.392C0.086,-0.428 0.104,-0.459 0.126,-0.484C0.148,-0.509 0.174,-0.528 0.203,-0.541C0.233,-0.554 0.263,-0.561 0.295,-0.561C0.324,-0.561 0.349,-0.558 0.371,-0.552C0.393,-0.545 0.417,-0.536 0.441,-0.523L0.441,-0.76L0.533,-0.76L0.533,-0ZM0.441,-0.134L0.441,-0.447C0.416,-0.458 0.394,-0.466 0.375,-0.47C0.355,-0.474 0.334,-0.477 0.311,-0.477C0.259,-0.477 0.219,-0.459 0.19,-0.423C0.162,-0.387 0.147,-0.336 0.147,-0.271C0.147,-0.206 0.159,-0.156 0.181,-0.123C0.203,-0.089 0.238,-0.072 0.287,-0.072C0.313,-0.072 0.34,-0.078 0.366,-0.09C0.393,-0.101 0.418,-0.116 0.441,-0.134Z" style="fill-rule:nonzero;"/>
                </g>
            </g>
        </g>
        <g transform="matrix(0.676484,0.736457,0.736457,-0.676484,40.1717,238.46)">
            <path d="M-5.052,-11.5L26.179,-11.5" style="fill:none;fill-rule:nonzero;stroke:black;stroke-width:1px;"/>
        </g>
        <g transform="matrix(1.29536,0,0,1,62.9985,199.295)">
            <path d="M0,0.863C-0.281,1.12 -1.145,1.937 -1.145,2.264C-1.145,2.498 -0.935,2.708 -0.701,2.708C-0.49,2.708 -0.397,2.567 -0.234,2.334C0.326,1.634 0.957,1.19 1.494,0.886C1.727,0.746 1.891,0.676 1.891,0.42C1.891,0.21 1.703,0.092 1.564,-0.025C0.91,-0.468 0.746,-1.098 0.676,-1.378C0.606,-1.565 0.536,-1.845 0.209,-1.845C0.069,-1.845 -0.211,-1.752 -0.211,-1.402C-0.211,-1.192 -0.07,-0.631 0.373,-0.001L-7.472,-0.001C-7.869,-0.001 -8.266,-0.001 -8.266,0.443C-8.266,0.863 -7.846,0.863 -7.472,0.863L0,0.863Z" style="fill-rule:nonzero;"/>
        </g>
        <g transform="matrix(1,0,0,1,63.6693,216.77)">
            <path d="M0,-12.725L-2.358,-12.725L-8.592,-2.592L-10.203,-12.725L-12.398,-12.725L-10.227,0L-8.102,0L0,-12.725Z" style="fill-rule:nonzero;"/>
        </g>
        <g transform="matrix(1,0,0,1,70.6742,214.872)">
            <path d="M0,-0.016C0,3.566 -0.648,4.831 -2.48,4.831C-4.328,4.831 -4.943,3.583 -4.943,-0C-4.943,-3.582 -4.313,-4.831 -2.48,-4.831C-0.648,-4.831 0,-3.567 0,-0.016M1.605,-0.016C1.605,-4.118 0.357,-6.144 -2.48,-6.144C-5.268,-6.144 -6.549,-4.183 -6.549,-0C-6.549,4.166 -5.301,6.128 -2.48,6.128C0.309,6.128 1.605,4.214 1.605,-0.016" style="fill-rule:nonzero;"/>
        </g>
        <g opacity="0.6">
            <g transform="matrix(-1,0,0,1,658.972,-76.148)">
                <rect x="94.05" y="92.481" width="470.872" height="433.519" style="fill:none;stroke:black;stroke-width:1px;stroke-linejoin:bevel;stroke-dasharray:17.96,25.95,0,0;"/>
            </g>
        </g>
        <g opacity="0.6">
            <g transform="matrix(-0.298868,0.954295,0.954295,0.298868,122.108,469.409)">
                <path d="M-16.66,-12.24L8.993,-12.24" style="fill:none;fill-rule:nonzero;stroke:black;stroke-width:2px;"/>
            </g>
        </g>
    </g>
    <g id="Ebene-4" serif:id="Ebene 4">
        <g transform="matrix(1,0,0,1,0,4)">
            <g transform="matrix(-0.707122,-0.707091,-0.707091,0.707122,136.454,43.6672)">
                <ellipse cx="-11.313" cy="-11.315" rx="16" ry="16.001" style="fill:none;stroke:black;stroke-width:1px;"/>
            </g>
            <g transform="matrix(1.5029,0,0,1.5029,-74.1696,-24.4595)">
                <circle cx="150.791" cy="45.329" r="1.663"/>
            </g>
        </g>
        <g transform="matrix(1,0,0,1,72.4288,4)">
            <g transform="matrix(-0.707122,-0.707091,-0.707091,0.707122,136.454,43.6672)">
                <ellipse cx="-11.313" cy="-11.315" rx="16" ry="16.001" style="fill:none;stroke:black;stroke-width:1px;"/>
            </g>
            <g transform="matrix(1.5029,0,0,1.5029,-74.1696,-24.4595)">
                <circle cx="150.791" cy="45.329" r="1.663"/>
            </g>
        </g>
        <g transform="matrix(1,0,0,1,144.858,4)">
            <g transform="matrix(-0.707122,-0.707091,-0.707091,0.707122,136.454,43.6672)">
                <ellipse cx="-11.313" cy="-11.315" rx="16" ry="16.001" style="fill:none;stroke:black;stroke-width:1px;"/>
            </g>
            <g transform="matrix(1.5029,0,0,1.5029,-74.1696,-24.4595)">
                <circle cx="150.791" cy="45.329" r="1.663"/>
            </g>
        </g>
        <g transform="matrix(1,0,0,1,217.286,4)">
            <g transform="matrix(-0.707122,-0.707091,-0.707091,0.707122,136.454,43.6672)">
                <ellipse cx="-11.313" cy="-11.315" rx="16" ry="16.001" style="fill:none;stroke:black;stroke-width:1px;"/>
            </g>
            <g transform="matrix(1.5029,0,0,1.5029,-74.1696,-24.4595)">
                <circle cx="150.791" cy="45.329" r="1.663"/>
            </g>
        </g>
        <g transform="matrix(1,0,0,1,289.715,4)">
            <g transform="matrix(-0.707122,-0.707091,-0.707091,0.707122,136.454,43.6672)">
                <ellipse cx="-11.313" cy="-11.315" rx="16" ry="16.001" style="fill:none;stroke:black;stroke-width:1px;"/>
            </g>
            <g transform="matrix(1.5029,0,0,1.5029,-74.1696,-24.4595)">
                <circle cx="150.791" cy="45.329" r="1.663"/>
            </g>
        </g>
        <g transform="matrix(1,0,0,1,362.144,4)">
            <g transform="matrix(-0.707122,-0.707091,-0.707091,0.707122,136.454,43.6672)">
                <ellipse cx="-11.313" cy="-11.315" rx="16" ry="16.001" style="fill:none;stroke:black;stroke-width:1px;"/>
            </g>
            <g transform="matrix(1.5029,0,0,1.5029,-74.1696,-24.4595)">
                <circle cx="150.791" cy="45.329" r="1.663"/>
            </g>
        </g>
        <g transform="matrix(1,0,0,1,0,78.9996)">
            <g transform="matrix(-0.707122,-0.707091,-0.707091,0.707122,136.454,43.6672)">
                <ellipse cx="-11.313" cy="-11.315" rx="16" ry="16.001" style="fill:none;stroke:black;stroke-width:1px;"/>
            </g>
            <g transform="matrix(1.5029,0,0,1.5029,-74.1696,-24.4595)">
                <circle cx="150.791" cy="45.329" r="1.663"/>
            </g>
        </g>
        <g transform="matrix(1,0,0,1,72.4288,78.9996)">
            <g transform="matrix(-0.707122,-0.707091,-0.707091,0.707122,136.454,43.6672)">
                <ellipse cx="-11.313" cy="-11.315" rx="16" ry="16.001" style="fill:none;stroke:black;stroke-width:1px;"/>
            </g>
            <g transform="matrix(1.5029,0,0,1.5029,-74.1696,-24.4595)">
                <circle cx="150.791" cy="45.329" r="1.663"/>
            </g>
        </g>
        <g transform="matrix(1,0,0,1,144.858,78.9996)">
            <g transform="matrix(-0.707122,-0.707091,-0.707091,0.707122,136.454,43.6672)">
                <ellipse cx="-11.313" cy="-11.315" rx="16" ry="16.001" style="fill:none;stroke:black;stroke-width:1px;"/>
            </g>
            <g transform="matrix(1.5029,0,0,1.5029,-74.1696,-24.4595)">
                <circle cx="150.791" cy="45.329" r="1.663"/>
            </g>
        </g>
        <g transform="matrix(1,0,0,1,217.286,78.9996)">
            <g transform="matrix(-0.707122,-0.707091,-0.707091,0.707122,136.454,43.6672)">
                <ellipse cx="-11.313" cy="-11.315" rx="16" ry="16.001" style="fill:none;stroke:black;stroke-width:1px;"/>
            </g>
            <g transform="matrix(1.5029,0,0,1.5029,-74.1696,-24.4595)">
                <circle cx="150.791" cy="45.329" r="1.663"/>
            </g>
        </g>
        <g transform="matrix(1,0,0,1,289.715,78.9996)">
            <g transform="matrix(-0.707122,-0.707091,-0.707091,0.707122,136.454,43.6672)">
                <ellipse cx="-11.313" cy="-11.315" rx="16" ry="16.001" style="fill:none;stroke:black;stroke-width:1px;"/>
            </g>
            <g transform="matrix(1.5029,0,0,1.5029,-74.1696,-24.4595)">
                <circle cx="150.791" cy="45.329" r="1.663"/>
            </g>
        </g>
        <g transform="matrix(1,0,0,1,362.144,78.9996)">
            <g transform="matrix(-0.707122,-0.707091,-0.707091,0.707122,136.454,43.6672)">
                <ellipse cx="-11.313" cy="-11.315" rx="16" ry="16.001" style="fill:none;stroke:black;stroke-width:1px;"/>
            </g>
            <g transform="matrix(1.5029,0,0,1.5029,-74.1696,-24.4595)">
                <circle cx="150.791" cy="45.329" r="1.663"/>
            </g>
        </g>
        <g transform="matrix(1,0,0,1,0,154)">
            <g transform="matrix(-0.707122,-0.707091,-0.707091,0.707122,136.454,43.6672)">
                <ellipse cx="-11.313" cy="-11.315" rx="16" ry="16.001" style="fill:none;stroke:black;stroke-width:1px;"/>
            </g>
            <g transform="matrix(1.5029,0,0,1.5029,-74.1696,-24.4595)">
                <circle cx="150.791" cy="45.329" r="1.663"/>
            </g>
        </g>
        <g transform="matrix(1,0,0,1,72.4288,154)">
            <g transform="matrix(-0.707122,-0.707091,-0.707091,0.707122,136.454,43.6672)">
                <ellipse cx="-11.313" cy="-11.315" rx="16" ry="16.001" style="fill:none;stroke:black;stroke-width:1px;"/>
            </g>
            <g transform="matrix(1.5029,0,0,1.5029,-74.1696,-24.4595)">
                <circle cx="150.791" cy="45.329" r="1.663"/>
            </g>
        </g>
        <g transform="matrix(1,0,0,1,144.858,154)">
            <g transform="matrix(-0.707122,-0.707091,-0.707091,0.707122,136.454,43.6672)">
                <ellipse cx="-11.313" cy="-11.315" rx="16" ry="16.001" style="fill:none;stroke:black;stroke-width:1px;"/>
            </g>
            <g transform="matrix(1.5029,0,0,1.5029,-74.1696,-24.4595)">
                <circle cx="150.791" cy="45.329" r="1.663"/>
            </g>
        </g>
        <g transform="matrix(1,0,0,1,217.286,154)">
            <g transform="matrix(-0.707122,-0.707091,-0.707091,0.707122,136.454,43.6672)">
                <ellipse cx="-11.313" cy="-11.315" rx="16" ry="16.001" style="fill:none;stroke:black;stroke-width:1px;"/>
            </g>
            <g transform="matrix(1.5029,0,0,1.5029,-74.1696,-24.4595)">
                <circle cx="150.791" cy="45.329" r="1.663"/>
            </g>
        </g>
        <g transform="matrix(1,0,0,1,289.715,154)">
            <g transform="matrix(-0.707122,-0.707091,-0.707091,0.707122,136.454,43.6672)">
                <ellipse cx="-11.313" cy="-11.315" rx="16" ry="16.001" style="fill:none;stroke:black;stroke-width:1px;"/>
            </g>
            <g transform="matrix(1.5029,0,0,1.5029,-74.1696,-24.4595)">
                <circle cx="150.791" cy="45.329" r="1.663"/>
            </g>
        </g>
        <g transform="matrix(1,0,0,1,362.144,154)">
            <g transform="matrix(-0.707122,-0.707091,-0.707091,0.707122,136.454,43.6672)">
                <ellipse cx="-11.313" cy="-11.315" rx="16" ry="16.001" style="fill:none;stroke:black;stroke-width:1px;"/>
            </g>
            <g transform="matrix(1.5029,0,0,1.5029,-74.1696,-24.4595)">
                <circle cx="150.791" cy="45.329" r="1.663"/>
            </g>
        </g>
        <g transform="matrix(1,0,0,1,0,231.5)">
            <g transform="matrix(-0.707122,-0.707091,-0.707091,0.707122,136.454,43.6672)">
                <ellipse cx="-11.313" cy="-11.315" rx="16" ry="16.001" style="fill:none;stroke:black;stroke-width:1px;"/>
            </g>
            <g transform="matrix(1.5029,0,0,1.5029,-74.1696,-24.4595)">
                <circle cx="150.791" cy="45.329" r="1.663"/>
            </g>
        </g>
        <g transform="matrix(1,0,0,1,72.4288,231.5)">
            <g transform="matrix(-0.707122,-0.707091,-0.707091,0.707122,136.454,43.6672)">
                <ellipse cx="-11.313" cy="-11.315" rx="16" ry="16.001" style="fill:none;stroke:black;stroke-width:1px;"/>
            </g>
            <g transform="matrix(1.5029,0,0,1.5029,-74.1696,-24.4595)">
                <circle cx="150.791" cy="45.329" r="1.663"/>
            </g>
        </g>
        <g transform="matrix(1,0,0,1,144.858,231.5)">
            <g transform="matrix(-0.707122,-0.707091,-0.707091,0.707122,136.454,43.6672)">
                <ellipse cx="-11.313" cy="-11.315" rx="16" ry="16.001" style="fill:none;stroke:black;stroke-width:1px;"/>
            </g>
            <g transform="matrix(1.5029,0,0,1.5029,-74.1696,-24.4595)">
                <circle cx="150.791" cy="45.329" r="1.663"/>
            </g>
        </g>
        <g transform="matrix(1,0,0,1,217.286,231.5)">
            <g transform="matrix(-0.707122,-0.707091,-0.707091,0.707122,136.454,43.6672)">
                <ellipse cx="-11.313" cy="-11.315" rx="16" ry="16.001" style="fill:none;stroke:black;stroke-width:1px;"/>
            </g>
            <g transform="matrix(1.5029,0,0,1.5029,-74.1696,-24.4595)">
                <circle cx="150.791" cy="45.329" r="1.663"/>
            </g>
        </g>
        <g transform="matrix(1,0,0,1,289.715,231.5)">
            <g transform="matrix(-0.707122,-0.707091,-0.707091,0.707122,136.454,43.6672)">
                <ellipse cx="-11.313" cy="-11.315" rx="16" ry="16.001" style="fill:none;stroke:black;stroke-width:1px;"/>
            </g>
            <g transform="matrix(1.5029,0,0,1.5029,-74.1696,-24.4595)">
                <circle cx="150.791" cy="45.329" r="1.663"/>
            </g>
        </g>
        <g transform="matrix(1,0,0,1,362.144,231.5)">
            <g transform="matrix(-0.707122,-0.707091,-0.707091,0.707122,136.454,43.6672)">
                <ellipse cx="-11.313" cy="-11.315" rx="16" ry="16.001" style="fill:none;stroke:black;stroke-width:1px;"/>
            </g>
            <g transform="matrix(1.5029,0,0,1.5029,-74.1696,-24.4595)">
                <circle cx="150.791" cy="45.329" r="1.663"/>
            </g>
        </g>
        <g transform="matrix(1,0,0,1,0,304)">
            <g transform="matrix(-0.707122,-0.707091,-0.707091,0.707122,136.454,43.6672)">
                <ellipse cx="-11.313" cy="-11.315" rx="16" ry="16.001" style="fill:none;stroke:black;stroke-width:1px;"/>
            </g>
            <g transform="matrix(1.5029,0,0,1.5029,-74.1696,-24.4595)">
                <circle cx="150.791" cy="45.329" r="1.663"/>
            </g>
        </g>
        <g transform="matrix(1,0,0,1,72.4288,304)">
            <g transform="matrix(-0.707122,-0.707091,-0.707091,0.707122,136.454,43.6672)">
                <ellipse cx="-11.313" cy="-11.315" rx="16" ry="16.001" style="fill:none;stroke:black;stroke-width:1px;"/>
            </g>
            <g transform="matrix(1.5029,0,0,1.5029,-74.1696,-24.4595)">
                <circle cx="150.791" cy="45.329" r="1.663"/>
            </g>
        </g>
        <g transform="matrix(1,0,0,1,144.858,304)">
            <g transform="matrix(-0.707122,-0.707091,-0.707091,0.707122,136.454,43.6672)">
                <ellipse cx="-11.313" cy="-11.315" rx="16" ry="16.001" style="fill:none;stroke:black;stroke-width:1px;"/>
            </g>
            <g transform="matrix(1.5029,0,0,1.5029,-74.1696,-24.4595)">
                <circle cx="150.791" cy="45.329" r="1.663"/>
            </g>
        </g>
        <g transform="matrix(1,0,0,1,217.286,304)">
            <g transform="matrix(-0.707122,-0.707091,-0.707091,0.707122,136.454,43.6672)">
                <ellipse cx="-11.313" cy="-11.315" rx="16" ry="16.001" style="fill:none;stroke:black;stroke-width:1px;"/>
            </g>
            <g transform="matrix(1.5029,0,0,1.5029,-74.1696,-24.4595)">
                <circle cx="150.791" cy="45.329" r="1.663"/>
            </g>
        </g>
        <g transform="matrix(1,0,0,1,289.715,304)">
            <g transform="matrix(-0.707122,-0.707091,-0.707091,0.707122,136.454,43.6672)">
                <ellipse cx="-11.313" cy="-11.315" rx="16" ry="16.001" style="fill:none;stroke:black;stroke-width:1px;"/>
            </g>
            <g transform="matrix(1.5029,0,0,1.5029,-74.1696,-24.4595)">
                <circle cx="150.791" cy="45.329" r="1.663"/>
            </g>
        </g>
        <g transform="matrix(1,0,0,1,362.144,304)">
            <g transform="matrix(-0.707122,-0.707091,-0.707091,0.707122,136.454,43.6672)">
                <ellipse cx="-11.313" cy="-11.315" rx="16" ry="16.001" style="fill:none;stroke:black;stroke-width:1px;"/>
            </g>
            <g transform="matrix(1.5029,0,0,1.5029,-74.1696,-24.4595)">
                <circle cx="150.791" cy="45.329" r="1.663"/>
            </g>
        </g>
        <g transform="matrix(1,0,0,1,0,379)">
            <g transform="matrix(-0.707122,-0.707091,-0.707091,0.707122,136.454,43.6672)">
                <ellipse cx="-11.313" cy="-11.315" rx="16" ry="16.001" style="fill:none;stroke:black;stroke-width:1px;"/>
            </g>
            <g transform="matrix(1.5029,0,0,1.5029,-74.1696,-24.4595)">
                <circle cx="150.791" cy="45.329" r="1.663"/>
            </g>
        </g>
        <g transform="matrix(1,0,0,1,72.4288,379)">
            <g transform="matrix(-0.707122,-0.707091,-0.707091,0.707122,136.454,43.6672)">
                <ellipse cx="-11.313" cy="-11.315" rx="16" ry="16.001" style="fill:none;stroke:black;stroke-width:1px;"/>
            </g>
            <g transform="matrix(1.5029,0,0,1.5029,-74.1696,-24.4595)">
                <circle cx="150.791" cy="45.329" r="1.663"/>
            </g>
        </g>
        <g transform="matrix(1,0,0,1,144.858,379)">
            <g transform="matrix(-0.707122,-0.707091,-0.707091,0.707122,136.454,43.6672)">
                <ellipse cx="-11.313" cy="-11.315" rx="16" ry="16.001" style="fill:none;stroke:black;stroke-width:1px;"/>
            </g>
            <g transform="matrix(1.5029,0,0,1.5029,-74.1696,-24.4595)">
                <circle cx="150.791" cy="45.329" r="1.663"/>
            </g>
        </g>
        <g transform="matrix(1,0,0,1,217.286,379)">
            <g transform="matrix(-0.707122,-0.707091,-0.707091,0.707122,136.454,43.6672)">
                <ellipse cx="-11.313" cy="-11.315" rx="16" ry="16.001" style="fill:none;stroke:black;stroke-width:1px;"/>
            </g>
            <g transform="matrix(1.5029,0,0,1.5029,-74.1696,-24.4595)">
                <circle cx="150.791" cy="45.329" r="1.663"/>
            </g>
        </g>
        <g transform="matrix(1,0,0,1,289.715,379)">
            <g transform="matrix(-0.707122,-0.707091,-0.707091,0.707122,136.454,43.6672)">
                <ellipse cx="-11.313" cy="-11.315" rx="16" ry="16.001" style="fill:none;stroke:black;stroke-width:1px;"/>
            </g>
            <g transform="matrix(1.5029,0,0,1.5029,-74.1696,-24.4595)">
                <circle cx="150.791" cy="45.329" r="1.663"/>
            </g>
        </g>
        <g transform="matrix(1,0,0,1,362.144,379)">
            <g transform="matrix(-0.707122,-0.707091,-0.707091,0.707122,136.454,43.6672)">
                <ellipse cx="-11.313" cy="-11.315" rx="16" ry="16.001" style="fill:none;stroke:black;stroke-width:1px;"/>
            </g>
            <g transform="matrix(1.5029,0,0,1.5029,-74.1696,-24.4595)">
                <circle cx="150.791" cy="45.329" r="1.663"/>
            </g>
        </g>
    </g>
    <g id="Ebene-5" serif:id="Ebene 5">
        <g transform="matrix(1,0,0,1,100.767,234.726)">
            <path d="M0,0L635.15,0" style="fill:none;fill-rule:nonzero;stroke:rgb(255,102,51);stroke-width:3px;stroke-dasharray:12.02,18.03;"/>
        </g>
        <g transform="matrix(1,0,0,1,735.089,234.7)">
            <path d="M0,0L4,0" style="fill:none;fill-rule:nonzero;stroke:rgb(255,102,51);stroke-width:3px;"/>
        </g>
        <g transform="matrix(0.967751,0.25191,-0.25191,0.967751,108.651,175.216)">
            <path d="M-8.144,63.613C246.785,-2.746 368.223,-8.615 496.902,63.613" style="fill:none;fill-rule:nonzero;stroke:rgb(51,0,255);stroke-width:2px;stroke-dasharray:16,16;"/>
        </g>
        <g transform="matrix(0.967751,-0.25191,0.25191,0.967751,103.604,294.236)">
            <path d="M-8.144,-63.613C246.785,2.746 368.223,8.616 496.902,-63.613" style="fill:none;fill-rule:nonzero;stroke:rgb(0,204,0);stroke-width:2px;stroke-dasharray:16,16,0,0;"/>
        </g>
        <g>
            <g transform="matrix(0.00309766,0.999995,0.999995,-0.00309766,680.496,112.834)">
                <path d="M-107.168,-107.5L107.834,-107.5" style="fill:none;fill-rule:nonzero;stroke:black;stroke-width:8px;"/>
            </g>
            <g transform="matrix(0.00294689,0.999996,0.999996,-0.00294689,686.329,362.667)">
                <path d="M-112.667,-113L113.333,-113" style="fill:none;fill-rule:nonzero;stroke:black;stroke-width:8px;"/>
            </g>
        </g>
    </g>
    <g id="Ebene-6" serif:id="Ebene 6">
        <g>
            <g transform="matrix(1,0,0,1,610.173,209.041)">
                <path d="M0,-12.725L-2.357,-12.725L-8.592,-2.592L-10.203,-12.725L-12.397,-12.725L-10.227,0L-8.102,0L0,-12.725Z" style="fill:rgb(255,102,51);fill-rule:nonzero;stroke:rgb(255,102,51);stroke-width:1px;stroke-linejoin:round;stroke-miterlimit:2;"/>
            </g>
            <g transform="matrix(1,0,0,1,617.179,207.143)">
                <path d="M0,-0.016C0,3.567 -0.648,4.831 -2.48,4.831C-4.328,4.831 -4.944,3.583 -4.944,-0C-4.944,-3.582 -4.313,-4.83 -2.48,-4.83C-0.648,-4.83 0,-3.567 0,-0.016M1.605,-0.016C1.605,-4.118 0.356,-6.144 -2.48,-6.144C-5.269,-6.144 -6.549,-4.182 -6.549,-0C-6.549,4.167 -5.301,6.128 -2.48,6.128C0.309,6.128 1.605,4.215 1.605,-0.016" style="fill:rgb(255,102,51);fill-rule:nonzero;stroke:rgb(255,102,51);stroke-width:1px;stroke-linejoin:round;stroke-miterlimit:2;"/>
            </g>
            <g transform="matrix(1,0,0,1,0,-139.126)">
                <path d="M643.223,342.213L629.704,342.213L629.704,344.033L643.223,344.033L643.223,342.213ZM643.223,337.426L629.704,337.426L629.704,339.247L643.223,339.247L643.223,337.426Z" style="fill:rgb(255,102,51);fill-rule:nonzero;stroke:rgb(255,102,51);stroke-width:1px;stroke-linejoin:round;stroke-miterlimit:2;"/>
            </g>
            <g transform="matrix(1,0,0,1,666.917,209.041)">
                <path d="M0,-12.725L-2.359,-12.725L-8.593,-2.592L-10.204,-12.725L-12.398,-12.725L-10.228,0L-8.103,0L0,-12.725Z" style="fill:rgb(255,102,51);fill-rule:nonzero;stroke:rgb(255,102,51);stroke-width:1px;stroke-linejoin:round;stroke-miterlimit:2;"/>
            </g>
            <g transform="matrix(1,0,0,1,676.19,207.514)">
                <path d="M0,-0.015C0,3.097 -1.67,4.54 -5.285,4.54L-6.76,4.54L-6.76,-4.554L-5.285,-4.554C-1.719,-4.554 0,-3.079 0,-0.015M1.638,0.001C1.638,-3.89 -0.697,-5.9 -5.382,-5.9L-8.316,-5.9L-8.316,5.885L-5.35,5.885C-3.178,5.885 -2.01,5.61 -0.924,4.945C0.616,3.989 1.638,2.141 1.638,0.001" style="fill:rgb(255,102,51);fill-rule:nonzero;stroke:rgb(255,102,51);stroke-width:1px;stroke-linejoin:round;stroke-miterlimit:2;"/>
            </g>
            <g transform="matrix(1,0,0,1,687.571,204.808)">
                <path d="M0,8.592L0,-0.243L-1.475,-0.243L-1.475,6.355C-2.27,6.971 -3.258,7.425 -4.02,7.425C-5.495,7.425 -5.9,6.777 -5.9,4.782L-5.9,-0.243L-7.393,-0.243L-7.393,5.496C-7.393,7.685 -6.306,8.835 -4.441,8.835C-3.34,8.835 -2.48,8.398 -1.475,7.604L-1.475,8.592L0,8.592Z" style="fill:rgb(255,102,51);fill-rule:nonzero;stroke:rgb(255,102,51);stroke-width:1px;stroke-linejoin:round;stroke-miterlimit:2;"/>
            </g>
            <g transform="matrix(1,0,0,1,696.034,211.779)">
                <path d="M0,-5.593L0,-7.133C-0.535,-7.214 -0.665,-7.214 -1.087,-7.214C-2.027,-7.214 -2.854,-6.858 -4.037,-5.917L-4.037,-7.214L-5.528,-7.214L-5.528,1.621L-4.037,1.621L-4.037,-4.653C-3.242,-5.301 -2.384,-5.755 -1.476,-5.755C-0.908,-5.755 -0.535,-5.706 -0.082,-5.593L0,-5.593Z" style="fill:rgb(255,102,51);fill-rule:nonzero;stroke:rgb(255,102,51);stroke-width:1px;stroke-linejoin:round;stroke-miterlimit:2;"/>
            </g>
            <g transform="matrix(1,0,0,1,703.977,205.099)">
                <path d="M0,7.75L0,6.112L-0.081,6.112C-0.957,6.81 -1.962,7.215 -2.902,7.215C-4.637,7.215 -5.642,6.031 -5.642,3.892C-5.642,1.703 -4.588,0.536 -2.902,0.536C-1.979,0.536 -0.989,0.941 -0.081,1.638L0,1.638L0,-0.016C-0.811,-0.421 -1.832,-0.745 -2.837,-0.745C-5.447,-0.745 -7.182,1.006 -7.182,3.892C-7.182,6.793 -5.642,8.495 -2.837,8.495C-1.832,8.495 -1.006,8.22 0,7.75" style="fill:rgb(255,102,51);fill-rule:nonzero;stroke:rgb(255,102,51);stroke-width:1px;stroke-linejoin:round;stroke-miterlimit:2;"/>
            </g>
            <g transform="matrix(1,0,0,1,713.267,201.08)">
                <path d="M0,12.32L0,6.582C0,4.425 -1.021,3.225 -2.936,3.225C-3.973,3.225 -4.978,3.696 -5.901,4.458L-5.901,0L-7.393,0L-7.393,12.32L-5.901,12.32L-5.901,5.722C-5.091,5.09 -4.167,4.652 -3.356,4.652C-1.914,4.652 -1.477,5.252 -1.477,7.279L-1.477,12.32L0,12.32Z" style="fill:rgb(255,102,51);fill-rule:nonzero;stroke:rgb(255,102,51);stroke-width:1px;stroke-linejoin:round;stroke-miterlimit:2;"/>
            </g>
            <g transform="matrix(-1,0,0,1,1433.8,-127.853)">
                <rect x="716.152" y="328.933" width="1.491" height="12.32" style="fill:rgb(255,102,51);stroke:rgb(255,102,51);stroke-width:1px;stroke-linejoin:round;stroke-miterlimit:2;"/>
            </g>
            <g transform="matrix(1,0,0,1,725.976,206.753)">
                <path d="M0,4.475C-0.746,5.042 -1.588,5.512 -2.643,5.512C-3.891,5.512 -4.49,4.994 -4.49,3.972C-4.49,2.562 -3.453,2.205 0,2.011L0,4.475ZM1.476,6.647L1.476,0.649C1.476,-1.459 0.275,-2.415 -2.367,-2.415C-3.437,-2.415 -4.668,-2.156 -5.252,-2.009L-5.252,-0.486L-5.172,-0.486C-4.15,-0.891 -3.161,-1.102 -2.383,-1.102C-0.615,-1.102 0,-0.616 0,0.811C-4.62,1.038 -6.03,1.784 -6.03,4.085C-6.03,5.723 -4.766,6.89 -3.178,6.89C-1.848,6.89 -1.426,6.679 0,5.706L0,6.647L1.476,6.647Z" style="fill:rgb(255,102,51);fill-rule:nonzero;stroke:rgb(255,102,51);stroke-width:1px;stroke-linejoin:round;stroke-miterlimit:2;"/>
            </g>
            <g transform="matrix(1,0,0,1,736.642,207.094)">
                <path d="M0,3.761C0,2.464 -0.68,1.686 -2.545,1.313C-4.911,0.826 -5.35,0.664 -5.35,-0.243C-5.35,-1.07 -4.506,-1.492 -3.404,-1.492C-2.366,-1.492 -1.183,-1.053 -0.421,-0.486L-0.355,-0.486L-0.355,-2.092C-1.069,-2.448 -2.252,-2.756 -3.307,-2.756C-5.446,-2.756 -6.873,-1.654 -6.873,-0.049C-6.873,1.443 -6.063,2.091 -3.809,2.529C-1.928,2.902 -1.523,3.08 -1.523,3.94C-1.523,4.847 -2.301,5.269 -3.614,5.269C-4.668,5.269 -5.884,4.815 -6.824,4.102L-6.905,4.102L-6.905,5.771C-6.176,6.144 -5.041,6.517 -3.729,6.517C-1.426,6.517 0,5.365 0,3.761" style="fill:rgb(255,102,51);fill-rule:nonzero;stroke:rgb(255,102,51);stroke-width:1px;stroke-linejoin:round;stroke-miterlimit:2;"/>
            </g>
            <g transform="matrix(1,0,0,1,745.089,207.094)">
                <path d="M0,3.761C0,2.464 -0.681,1.686 -2.545,1.313C-4.912,0.826 -5.35,0.664 -5.35,-0.243C-5.35,-1.07 -4.506,-1.492 -3.404,-1.492C-2.367,-1.492 -1.184,-1.053 -0.422,-0.486L-0.356,-0.486L-0.356,-2.092C-1.07,-2.448 -2.254,-2.756 -3.307,-2.756C-5.447,-2.756 -6.873,-1.654 -6.873,-0.049C-6.873,1.443 -6.063,2.091 -3.81,2.529C-1.929,2.902 -1.523,3.08 -1.523,3.94C-1.523,4.847 -2.302,5.269 -3.615,5.269C-4.668,5.269 -5.885,4.815 -6.824,4.102L-6.906,4.102L-6.906,5.771C-6.176,6.144 -5.041,6.517 -3.729,6.517C-1.426,6.517 0,5.365 0,3.761" style="fill:rgb(255,102,51);fill-rule:nonzero;stroke:rgb(255,102,51);stroke-width:1px;stroke-linejoin:round;stroke-miterlimit:2;"/>
            </g>
        </g>
        <g transform="matrix(1,0,0,1,0,-249.5)">
            <g transform="matrix(1,0,0,1,602.861,356.74)">
                <path d="M0,-12.725L-2.358,-12.725L-8.593,-2.591L-10.203,-12.725L-12.398,-12.725L-10.227,0L-8.103,0L0,-12.725Z" style="fill:rgb(0,204,0);fill-rule:nonzero;stroke:rgb(0,204,0);stroke-width:1px;stroke-linejoin:round;stroke-miterlimit:2;"/>
            </g>
            <g transform="matrix(1,0,0,1,609.866,354.841)">
                <path d="M0,-0.016C0,3.567 -0.648,4.831 -2.48,4.831C-4.328,4.831 -4.944,3.583 -4.944,0.001C-4.944,-3.582 -4.313,-4.83 -2.48,-4.83C-0.648,-4.83 0,-3.567 0,-0.016M1.605,-0.016C1.605,-4.118 0.356,-6.144 -2.48,-6.144C-5.269,-6.144 -6.549,-4.182 -6.549,0.001C-6.549,4.167 -5.301,6.128 -2.48,6.128C0.309,6.128 1.605,4.215 1.605,-0.016" style="fill:rgb(0,204,0);fill-rule:nonzero;stroke:rgb(0,204,0);stroke-width:1px;stroke-linejoin:round;stroke-miterlimit:2;"/>
            </g>
            <g transform="matrix(1,0,0,1,634.977,350.413)">
                <path d="M0,1.003C0.443,0.793 0.467,0.653 0.467,0.489C0.467,0.35 0.42,0.186 0,-0.001L-12.632,-5.814C-12.936,-5.955 -12.982,-5.978 -13.028,-5.978C-13.309,-5.978 -13.473,-5.745 -13.473,-5.558C-13.473,-5.277 -13.285,-5.185 -12.982,-5.044L-0.98,0.489L-13.005,6.046C-13.473,6.257 -13.473,6.42 -13.473,6.56C-13.473,6.747 -13.309,6.981 -13.028,6.981C-12.982,6.981 -12.959,6.957 -12.632,6.816L0,1.003Z" style="fill:rgb(0,204,0);fill-rule:nonzero;stroke:rgb(0,204,0);stroke-width:1px;stroke-linejoin:round;stroke-miterlimit:2;"/>
            </g>
            <g transform="matrix(1,0,0,1,658.287,356.74)">
                <path d="M0,-12.725L-2.358,-12.725L-8.593,-2.591L-10.203,-12.725L-12.398,-12.725L-10.227,0L-8.103,0L0,-12.725Z" style="fill:rgb(0,204,0);fill-rule:nonzero;stroke:rgb(0,204,0);stroke-width:1px;stroke-linejoin:round;stroke-miterlimit:2;"/>
            </g>
            <g transform="matrix(1,0,0,1,667.561,355.213)">
                <path d="M0,-0.015C0,3.097 -1.67,4.54 -5.285,4.54L-6.761,4.54L-6.761,-4.554L-5.285,-4.554C-1.719,-4.554 0,-3.079 0,-0.015M1.637,0.001C1.637,-3.89 -0.697,-5.9 -5.383,-5.9L-8.316,-5.9L-8.316,5.885L-5.35,5.885C-3.178,5.885 -2.011,5.61 -0.925,4.945C0.615,3.989 1.637,2.141 1.637,0.001" style="fill:rgb(0,204,0);fill-rule:nonzero;stroke:rgb(0,204,0);stroke-width:1px;stroke-linejoin:round;stroke-miterlimit:2;"/>
            </g>
            <g transform="matrix(1,0,0,1,678.941,352.507)">
                <path d="M0,8.592L0,-0.243L-1.476,-0.243L-1.476,6.355C-2.27,6.971 -3.259,7.425 -4.021,7.425C-5.496,7.425 -5.901,6.777 -5.901,4.782L-5.901,-0.243L-7.393,-0.243L-7.393,5.496C-7.393,7.685 -6.307,8.835 -4.442,8.835C-3.34,8.835 -2.48,8.398 -1.476,7.604L-1.476,8.592L0,8.592Z" style="fill:rgb(0,204,0);fill-rule:nonzero;stroke:rgb(0,204,0);stroke-width:1px;stroke-linejoin:round;stroke-miterlimit:2;"/>
            </g>
            <g transform="matrix(1,0,0,1,687.404,359.478)">
                <path d="M0,-5.593L0,-7.133C-0.535,-7.214 -0.665,-7.214 -1.086,-7.214C-2.026,-7.214 -2.854,-6.858 -4.037,-5.917L-4.037,-7.214L-5.528,-7.214L-5.528,1.621L-4.037,1.621L-4.037,-4.653C-3.242,-5.301 -2.383,-5.755 -1.476,-5.755C-0.908,-5.755 -0.535,-5.706 -0.081,-5.593L0,-5.593Z" style="fill:rgb(0,204,0);fill-rule:nonzero;stroke:rgb(0,204,0);stroke-width:1px;stroke-linejoin:round;stroke-miterlimit:2;"/>
            </g>
            <g transform="matrix(1,0,0,1,695.347,352.798)">
                <path d="M0,7.75L0,6.112L-0.081,6.112C-0.956,6.81 -1.961,7.215 -2.901,7.215C-4.637,7.215 -5.642,6.031 -5.642,3.892C-5.642,1.703 -4.588,0.536 -2.901,0.536C-1.978,0.536 -0.988,0.941 -0.081,1.639L0,1.639L0,-0.016C-0.811,-0.421 -1.832,-0.745 -2.837,-0.745C-5.447,-0.745 -7.182,1.006 -7.182,3.892C-7.182,6.793 -5.642,8.495 -2.837,8.495C-1.832,8.495 -1.005,8.22 0,7.75" style="fill:rgb(0,204,0);fill-rule:nonzero;stroke:rgb(0,204,0);stroke-width:1px;stroke-linejoin:round;stroke-miterlimit:2;"/>
            </g>
            <g transform="matrix(1,0,0,1,704.637,348.779)">
                <path d="M0,12.32L0,6.582C0,4.425 -1.021,3.226 -2.935,3.226C-3.972,3.226 -4.977,3.696 -5.901,4.458L-5.901,0L-7.393,0L-7.393,12.32L-5.901,12.32L-5.901,5.722C-5.091,5.091 -4.166,4.652 -3.355,4.652C-1.913,4.652 -1.476,5.253 -1.476,7.279L-1.476,12.32L0,12.32Z" style="fill:rgb(0,204,0);fill-rule:nonzero;stroke:rgb(0,204,0);stroke-width:1px;stroke-linejoin:round;stroke-miterlimit:2;"/>
            </g>
            <g transform="matrix(-1,0,0,1,1416.54,167.543)">
                <rect x="707.522" y="181.235" width="1.492" height="12.32" style="fill:rgb(0,204,0);stroke:rgb(0,204,0);stroke-width:1px;stroke-linejoin:round;stroke-miterlimit:2;"/>
            </g>
            <g transform="matrix(1,0,0,1,717.347,354.452)">
                <path d="M0,4.475C-0.746,5.042 -1.589,5.512 -2.643,5.512C-3.891,5.512 -4.491,4.994 -4.491,3.972C-4.491,2.562 -3.453,2.205 0,2.011L0,4.475ZM1.475,6.647L1.475,0.649C1.475,-1.459 0.275,-2.415 -2.367,-2.415C-3.438,-2.415 -4.669,-2.156 -5.253,-2.009L-5.253,-0.486L-5.172,-0.486C-4.15,-0.891 -3.161,-1.102 -2.384,-1.102C-0.616,-1.102 0,-0.616 0,0.811C-4.62,1.038 -6.031,1.784 -6.031,4.085C-6.031,5.723 -4.767,6.89 -3.178,6.89C-1.849,6.89 -1.427,6.679 0,5.706L0,6.647L1.475,6.647Z" style="fill:rgb(0,204,0);fill-rule:nonzero;stroke:rgb(0,204,0);stroke-width:1px;stroke-linejoin:round;stroke-miterlimit:2;"/>
            </g>
            <g transform="matrix(1,0,0,1,728.013,354.793)">
                <path d="M0,3.761C0,2.464 -0.681,1.686 -2.545,1.313C-4.912,0.826 -5.35,0.664 -5.35,-0.243C-5.35,-1.07 -4.507,-1.491 -3.404,-1.491C-2.366,-1.491 -1.184,-1.053 -0.421,-0.486L-0.356,-0.486L-0.356,-2.092C-1.069,-2.448 -2.253,-2.756 -3.307,-2.756C-5.446,-2.756 -6.873,-1.653 -6.873,-0.049C-6.873,1.443 -6.063,2.091 -3.81,2.529C-1.929,2.902 -1.523,3.08 -1.523,3.94C-1.523,4.847 -2.302,5.269 -3.615,5.269C-4.669,5.269 -5.885,4.815 -6.825,4.102L-6.906,4.102L-6.906,5.771C-6.176,6.144 -5.041,6.517 -3.729,6.517C-1.427,6.517 0,5.365 0,3.761" style="fill:rgb(0,204,0);fill-rule:nonzero;stroke:rgb(0,204,0);stroke-width:1px;stroke-linejoin:round;stroke-miterlimit:2;"/>
            </g>
            <g transform="matrix(1,0,0,1,736.459,354.793)">
                <path d="M0,3.761C0,2.464 -0.682,1.686 -2.546,1.313C-4.912,0.826 -5.351,0.664 -5.351,-0.243C-5.351,-1.07 -4.507,-1.491 -3.405,-1.491C-2.367,-1.491 -1.184,-1.053 -0.422,-0.486L-0.357,-0.486L-0.357,-2.092C-1.07,-2.448 -2.254,-2.756 -3.308,-2.756C-5.447,-2.756 -6.874,-1.653 -6.874,-0.049C-6.874,1.443 -6.063,2.091 -3.811,2.529C-1.93,2.902 -1.524,3.08 -1.524,3.94C-1.524,4.847 -2.303,5.269 -3.615,5.269C-4.669,5.269 -5.885,4.815 -6.825,4.102L-6.906,4.102L-6.906,5.771C-6.177,6.144 -5.042,6.517 -3.729,6.517C-1.427,6.517 0,5.365 0,3.761" style="fill:rgb(0,204,0);fill-rule:nonzero;stroke:rgb(0,204,0);stroke-width:1px;stroke-linejoin:round;stroke-miterlimit:2;"/>
            </g>
        </g>
        <g transform="matrix(1,0,0,1,8.33333,245.937)">
            <g transform="matrix(1,0,0,1,602.101,120.077)">
                <path d="M0,-12.725L-2.358,-12.725L-8.593,-2.591L-10.203,-12.725L-12.398,-12.725L-10.227,0L-8.103,0L0,-12.725Z" style="fill:rgb(51,0,255);fill-rule:nonzero;stroke:rgb(51,0,255);stroke-width:1px;stroke-linejoin:round;stroke-miterlimit:2;"/>
            </g>
            <g transform="matrix(1,0,0,1,609.106,118.178)">
                <path d="M0,-0.016C0,3.567 -0.648,4.831 -2.48,4.831C-4.328,4.831 -4.944,3.583 -4.944,0.001C-4.944,-3.582 -4.313,-4.83 -2.48,-4.83C-0.648,-4.83 0,-3.567 0,-0.016M1.605,-0.016C1.605,-4.118 0.356,-6.144 -2.48,-6.144C-5.269,-6.144 -6.549,-4.182 -6.549,0.001C-6.549,4.167 -5.301,6.128 -2.48,6.128C0.309,6.128 1.605,4.215 1.605,-0.016" style="fill:rgb(51,0,255);fill-rule:nonzero;stroke:rgb(51,0,255);stroke-width:1px;stroke-linejoin:round;stroke-miterlimit:2;"/>
            </g>
            <g transform="matrix(1,0,0,1,634.216,119.795)">
                <path d="M0,-11.089C0.42,-11.277 0.467,-11.44 0.467,-11.579C0.467,-11.836 0.28,-12.024 0.023,-12.024C-0.023,-12.024 -0.047,-12 -0.374,-11.86L-13.005,-6.046C-13.426,-5.86 -13.473,-5.695 -13.473,-5.556C-13.473,-5.392 -13.449,-5.252 -13.005,-5.042L-0.374,0.771C-0.07,0.912 -0.023,0.935 0.023,0.935C0.28,0.935 0.467,0.749 0.467,0.492C0.467,0.351 0.42,0.188 0,0.001L-12.024,-5.532L0,-11.089Z" style="fill:rgb(51,0,255);fill-rule:nonzero;stroke:rgb(51,0,255);stroke-width:1px;stroke-linejoin:round;stroke-miterlimit:2;"/>
            </g>
            <g transform="matrix(1,0,0,1,657.526,120.077)">
                <path d="M0,-12.725L-2.358,-12.725L-8.593,-2.591L-10.203,-12.725L-12.398,-12.725L-10.227,0L-8.103,0L0,-12.725Z" style="fill:rgb(51,0,255);fill-rule:nonzero;stroke:rgb(51,0,255);stroke-width:1px;stroke-linejoin:round;stroke-miterlimit:2;"/>
            </g>
            <g transform="matrix(1,0,0,1,666.801,118.55)">
                <path d="M0,-0.015C0,3.097 -1.67,4.54 -5.285,4.54L-6.761,4.54L-6.761,-4.554L-5.285,-4.554C-1.719,-4.554 0,-3.079 0,-0.015M1.637,0.001C1.637,-3.89 -0.697,-5.9 -5.383,-5.9L-8.316,-5.9L-8.316,5.885L-5.35,5.885C-3.178,5.885 -2.011,5.61 -0.925,4.945C0.615,3.989 1.637,2.141 1.637,0.001" style="fill:rgb(51,0,255);fill-rule:nonzero;stroke:rgb(51,0,255);stroke-width:1px;stroke-linejoin:round;stroke-miterlimit:2;"/>
            </g>
            <g transform="matrix(1,0,0,1,678.181,115.843)">
                <path d="M0,8.592L0,-0.243L-1.476,-0.243L-1.476,6.355C-2.27,6.971 -3.259,7.425 -4.021,7.425C-5.496,7.425 -5.901,6.777 -5.901,4.782L-5.901,-0.243L-7.393,-0.243L-7.393,5.496C-7.393,7.685 -6.307,8.835 -4.442,8.835C-3.34,8.835 -2.48,8.398 -1.476,7.604L-1.476,8.592L0,8.592Z" style="fill:rgb(51,0,255);fill-rule:nonzero;stroke:rgb(51,0,255);stroke-width:1px;stroke-linejoin:round;stroke-miterlimit:2;"/>
            </g>
            <g transform="matrix(1,0,0,1,686.644,122.815)">
                <path d="M0,-5.593L0,-7.133C-0.535,-7.214 -0.665,-7.214 -1.086,-7.214C-2.026,-7.214 -2.854,-6.858 -4.037,-5.917L-4.037,-7.214L-5.528,-7.214L-5.528,1.621L-4.037,1.621L-4.037,-4.653C-3.242,-5.301 -2.383,-5.755 -1.476,-5.755C-0.908,-5.755 -0.535,-5.706 -0.081,-5.593L0,-5.593Z" style="fill:rgb(51,0,255);fill-rule:nonzero;stroke:rgb(51,0,255);stroke-width:1px;stroke-linejoin:round;stroke-miterlimit:2;"/>
            </g>
            <g transform="matrix(1,0,0,1,694.586,116.135)">
                <path d="M0,7.75L0,6.112L-0.081,6.112C-0.956,6.81 -1.961,7.215 -2.901,7.215C-4.637,7.215 -5.642,6.031 -5.642,3.892C-5.642,1.703 -4.588,0.536 -2.901,0.536C-1.978,0.536 -0.988,0.941 -0.081,1.639L0,1.639L0,-0.016C-0.811,-0.421 -1.832,-0.745 -2.837,-0.745C-5.447,-0.745 -7.182,1.006 -7.182,3.892C-7.182,6.793 -5.642,8.495 -2.837,8.495C-1.832,8.495 -1.005,8.22 0,7.75" style="fill:rgb(51,0,255);fill-rule:nonzero;stroke:rgb(51,0,255);stroke-width:1px;stroke-linejoin:round;stroke-miterlimit:2;"/>
            </g>
            <g transform="matrix(1,0,0,1,703.876,112.115)">
                <path d="M0,12.32L0,6.582C0,4.425 -1.021,3.226 -2.935,3.226C-3.972,3.226 -4.977,3.696 -5.901,4.458L-5.901,0L-7.393,0L-7.393,12.32L-5.901,12.32L-5.901,5.722C-5.091,5.091 -4.166,4.652 -3.355,4.652C-1.913,4.652 -1.476,5.253 -1.476,7.279L-1.476,12.32L0,12.32Z" style="fill:rgb(51,0,255);fill-rule:nonzero;stroke:rgb(51,0,255);stroke-width:1px;stroke-linejoin:round;stroke-miterlimit:2;"/>
            </g>
            <g transform="matrix(-1,0,0,1,1415.01,-305.783)">
                <rect x="706.761" y="417.898" width="1.492" height="12.32" style="fill:rgb(51,0,255);stroke:rgb(51,0,255);stroke-width:1px;stroke-linejoin:round;stroke-miterlimit:2;"/>
            </g>
            <g transform="matrix(1,0,0,1,716.586,117.789)">
                <path d="M0,4.475C-0.746,5.042 -1.589,5.512 -2.643,5.512C-3.891,5.512 -4.491,4.994 -4.491,3.972C-4.491,2.562 -3.453,2.205 0,2.011L0,4.475ZM1.475,6.647L1.475,0.649C1.475,-1.459 0.275,-2.415 -2.367,-2.415C-3.438,-2.415 -4.669,-2.156 -5.253,-2.009L-5.253,-0.486L-5.172,-0.486C-4.15,-0.891 -3.161,-1.102 -2.384,-1.102C-0.616,-1.102 0,-0.616 0,0.811C-4.62,1.038 -6.031,1.784 -6.031,4.085C-6.031,5.723 -4.767,6.89 -3.178,6.89C-1.849,6.89 -1.427,6.679 0,5.706L0,6.647L1.475,6.647Z" style="fill:rgb(51,0,255);fill-rule:nonzero;stroke:rgb(51,0,255);stroke-width:1px;stroke-linejoin:round;stroke-miterlimit:2;"/>
            </g>
            <g transform="matrix(1,0,0,1,727.252,118.13)">
                <path d="M0,3.761C0,2.464 -0.681,1.686 -2.545,1.313C-4.912,0.826 -5.35,0.664 -5.35,-0.243C-5.35,-1.07 -4.507,-1.491 -3.404,-1.491C-2.366,-1.491 -1.184,-1.053 -0.421,-0.486L-0.356,-0.486L-0.356,-2.092C-1.069,-2.448 -2.253,-2.756 -3.307,-2.756C-5.446,-2.756 -6.873,-1.653 -6.873,-0.049C-6.873,1.443 -6.063,2.091 -3.81,2.529C-1.929,2.902 -1.523,3.08 -1.523,3.94C-1.523,4.847 -2.302,5.269 -3.615,5.269C-4.669,5.269 -5.885,4.815 -6.825,4.102L-6.906,4.102L-6.906,5.771C-6.176,6.144 -5.041,6.517 -3.729,6.517C-1.427,6.517 0,5.365 0,3.761" style="fill:rgb(51,0,255);fill-rule:nonzero;stroke:rgb(51,0,255);stroke-width:1px;stroke-linejoin:round;stroke-miterlimit:2;"/>
            </g>
            <g transform="matrix(1,0,0,1,735.698,118.13)">
                <path d="M0,3.761C0,2.464 -0.682,1.686 -2.546,1.313C-4.912,0.826 -5.351,0.664 -5.351,-0.243C-5.351,-1.07 -4.507,-1.491 -3.405,-1.491C-2.367,-1.491 -1.184,-1.053 -0.422,-0.486L-0.357,-0.486L-0.357,-2.092C-1.07,-2.448 -2.254,-2.756 -3.308,-2.756C-5.447,-2.756 -6.874,-1.653 -6.874,-0.049C-6.874,1.443 -6.063,2.091 -3.811,2.529C-1.93,2.902 -1.524,3.08 -1.524,3.94C-1.524,4.847 -2.303,5.269 -3.615,5.269C-4.669,5.269 -5.885,4.815 -6.825,4.102L-6.906,4.102L-6.906,5.771C-6.177,6.144 -5.042,6.517 -3.729,6.517C-1.427,6.517 0,5.365 0,3.761" style="fill:rgb(51,0,255);fill-rule:nonzero;stroke:rgb(51,0,255);stroke-width:1px;stroke-linejoin:round;stroke-miterlimit:2;"/>
            </g>
        </g>
    </g>
    <defs>
        <radialGradient id="_Radial1" cx="0" cy="0" r="1" gradientUnits="userSpaceOnUse" gradientTransform="matrix(0,1,1,0,6.40092e-05,-6.40092e-05)"><stop offset="0" style="stop-color:rgb(0,51,255);stop-opacity:1"/><stop offset="1" style="stop-color:rgb(0,153,204);stop-opacity:1"/></radialGradient>
    </defs>
</svg>
